<?xml version="1.0" encoding="UTF-8" standalone="no"?>
<svg width="105px" height="112px" viewBox="0 0 105 112" version="1.1" xmlns="http://www.w3.org/2000/svg" xmlns:xlink="http://www.w3.org/1999/xlink">
    <!-- Generator: Sketch 50.2 (55047) - http://www.bohemiancoding.com/sketch -->
    <title>Page 1</title>
    <desc>Created with Sketch.</desc>
    <defs></defs>
    <g id="Wireframes" stroke="none" stroke-width="1" fill="none" fill-rule="evenodd">
        <g id="2-3-3---Sign-Up-Provider-Uploads" transform="translate(-1142.000000, -366.000000)">
            <g id="Group" transform="translate(999.000000, 366.000000)">
                <g id="Page-1" transform="translate(143.000000, 0.000000)">
                    <polygon id="Fill-1" fill="#F16000" points="58.7385069 32.6237033 58.6573264 44 47.5579514 44 47.5579514 32.54131 35 32.54131 35 22.1166317 47.8819444 22.2811774 47.8819444 10 58.8194444 10 58.8194444 20.5535684 70 20.5535684 70 32.788249"></polygon>
                    <path d="M88.75,58 L96.25,58 L96.25,54 L88.75,54 L88.75,58 Z M85,62 L100,62 L100,50 L85,50 L85,62 Z" id="Fill-2" fill="#252525"></path>
                    <path d="M88.75,72.3333333 L96.25,72.3333333 L96.25,68.6666667 L88.75,68.6666667 L88.75,72.3333333 Z M85,76 L100,76 L100,65 L85,65 L85,76 Z" id="Fill-3" fill="#252525"></path>
                    <path d="M88.75,88.3333333 L96.25,88.3333333 L96.25,84.6666667 L88.75,84.6666667 L88.75,88.3333333 Z M85,92 L100,92 L100,81 L85,81 L85,92 Z" id="Fill-4" fill="#252525"></path>
                    <path d="M88.75,103.333333 L96.25,103.333333 L96.25,99.6666667 L88.75,99.6666667 L88.75,103.333333 Z M85,107 L100,107 L100,96 L85,96 L85,107 Z" id="Fill-5" fill="#252525"></path>
                    <path d="M68.2,23.2 L68.2,30.8 L56.8,30.8 L56.8,42.2 L49.2,42.2 L49.2,30.8 L37.8,30.8 L37.8,23.2 L49.2,23.2 L49.2,11.8 L56.8,11.8 L56.8,23.2 L68.2,23.2 Z M60.6,8 L45.4,8 L45.4,19.4 L34,19.4 L34,34.6 L45.4,34.6 L45.4,46 L60.6,46 L60.6,34.6 L72,34.6 L72,19.4 L60.6,19.4 L60.6,8 Z" id="Fill-6" fill="#252525"></path>
                    <path d="M26.2499414,0 L26.2499414,40.9953704 L0,40.9953704 L0,111.805556 L105,111.805556 L105,40.9953704 L78.7498242,40.9953704 L78.7498242,0 L26.2499414,0 Z M29.999933,3.72661892 L75.000067,3.72661892 L75.000067,108.078704 L67.4998493,108.078704 L67.4998493,70.8099523 L37.5001507,70.8099523 L37.5001507,108.078704 L29.999933,108.078704 L29.999933,3.72661892 Z M78.7498242,108.078704 L101.249774,108.078704 L101.249774,44.7222222 L78.7498242,44.7222222 L78.7498242,108.078704 Z M3.750226,108.078704 L26.2499414,108.078704 L26.2499414,44.7222222 L3.750226,44.7222222 L3.750226,108.078704 Z M54.375113,108.078704 L63.7500921,108.078704 L63.7500921,74.537037 L54.375113,74.537037 L54.375113,108.078704 Z M41.2501423,108.078704 L50.6251214,108.078704 L50.6251214,74.537037 L41.2501423,74.537037 L41.2501423,108.078704 Z" id="Fill-7" fill="#252525"></path>
                    <path d="M11.75,58 L19.25,58 L19.25,54 L11.75,54 L11.75,58 Z M8,62 L23,62 L23,50 L8,50 L8,62 Z" id="Fill-8" fill="#252525"></path>
                    <path d="M11.75,72.3333333 L19.25,72.3333333 L19.25,68.6666667 L11.75,68.6666667 L11.75,72.3333333 Z M8,76 L23,76 L23,65 L8,65 L8,76 Z" id="Fill-9" fill="#252525"></path>
                    <path d="M11.75,88.3333333 L19.25,88.3333333 L19.25,84.6666667 L11.75,84.6666667 L11.75,88.3333333 Z M8,92 L23,92 L23,81 L8,81 L8,92 Z" id="Fill-10" fill="#252525"></path>
                    <path d="M11.75,103.333333 L19.25,103.333333 L19.25,99.6666667 L11.75,99.6666667 L11.75,103.333333 Z M8,107 L23,107 L23,96 L8,96 L8,107 Z" id="Fill-11" fill="#252525"></path>
                </g>
            </g>
        </g>
    </g>
</svg>