<?xml version="1.0" encoding="UTF-8" standalone="no"?>
<svg width="105px" height="91px" viewBox="0 0 105 91" version="1.1" xmlns="http://www.w3.org/2000/svg" xmlns:xlink="http://www.w3.org/1999/xlink">
    <!-- Generator: Sketch 50.2 (55047) - http://www.bohemiancoding.com/sketch -->
    <title>Page 1 Copy</title>
    <desc>Created with Sketch.</desc>
    <defs></defs>
    <g id="Symbols" stroke="none" stroke-width="1" fill="none" fill-rule="evenodd">
        <g id="Side-Step-2" transform="translate(-189.000000, -376.000000)">
            <g id="Group-3" transform="translate(46.000000, 376.000000)">
                <g id="Page-1-Copy" transform="translate(143.000000, 0.000000)">
                    <polygon id="Fill-1" fill="#EF6322" points="41.6216216 29.3243243 62.4324324 29.3243243 62.4324324 0.945945946 41.6216216 0.945945946"></polygon>
                    <path d="M52.5,8.73138895 C54.4315625,8.73138895 56.004375,10.3008561 56.004375,12.2283102 C56.004375,14.1448501 54.4315625,15.7143173 52.5,15.7143173 C50.5684375,15.7143173 48.995625,14.1448501 48.995625,12.2283102 C48.995625,10.3008561 50.5684375,8.73138895 52.5,8.73138895 Z M52.5,19.2112385 C56.363125,19.2112385 59.4978125,16.0723042 59.4978125,12.2283102 C59.4978125,8.37340201 56.363125,5.23446768 52.5,5.23446768 C48.636875,5.23446768 45.5021875,8.37340201 45.5021875,12.2283102 C45.5021875,16.0723042 48.636875,19.2112385 52.5,19.2112385 Z M101.495625,82.6404136 C101.495625,85.2161733 99.395625,87.3138895 96.814375,87.3138895 L8.185625,87.3138895 C5.604375,87.3138895 3.504375,85.2161733 3.504375,82.6404136 L3.504375,25.6309923 C3.504375,23.0574154 5.604375,20.9596992 8.185625,20.9596992 L40.245625,20.9596992 L40.245625,27.3969157 C40.245625,29.621237 42.065625,31.4286345 44.296875,31.4286345 L60.703125,31.4286345 C62.934375,31.4286345 64.754375,29.621237 64.754375,27.3969157 L64.754375,20.9596992 L96.814375,20.9596992 C99.395625,20.9596992 101.495625,23.0574154 101.495625,25.6309923 L101.495625,82.6404136 Z M43.75,4.04263309 C43.75,3.73485162 43.9971875,3.49692128 44.296875,3.49692128 L60.703125,3.49692128 C61.0028125,3.49692128 61.25,3.73485162 61.25,4.04263309 L61.25,27.3969157 C61.25,27.6959658 61.0028125,27.9426275 60.703125,27.9426275 L44.296875,27.9426275 C43.9971875,27.9426275 43.75,27.6959658 43.75,27.3969157 L43.75,4.04263309 Z M96.814375,17.4627779 L64.754375,17.4627779 L64.754375,4.04263309 C64.754375,1.80739751 62.934375,0 60.703125,0 L44.296875,0 C42.065625,0 40.245625,1.80739751 40.245625,4.04263309 L40.245625,17.4627779 L8.185625,17.4627779 C3.675,17.4627779 0,21.1299613 0,25.6309923 L0,82.6404136 C0,87.1436275 3.675,90.8108108 8.185625,90.8108108 L96.814375,90.8108108 C101.325,90.8108108 105,87.1436275 105,82.6404136 L105,25.6309923 C105,21.1299613 101.325,17.4627779 96.814375,17.4627779 Z M92.745625,61.1546482 L54.2521875,61.1546482 C53.2853125,61.1546482 52.5,61.929559 52.5,62.8943775 C52.5,63.8657445 53.2853125,64.6406553 54.2521875,64.6406553 L92.745625,64.6406553 C93.72125,64.6406553 94.4978125,63.8657445 94.4978125,62.8943775 C94.4978125,61.929559 93.72125,61.1546482 92.745625,61.1546482 Z M92.745625,50.6747986 L54.2521875,50.6747986 C53.2853125,50.6747986 52.5,51.4497094 52.5,52.4232593 C52.5,53.3858949 53.2853125,54.1629885 54.2521875,54.1629885 L92.745625,54.1629885 C93.72125,54.1629885 94.4978125,53.3858949 94.4978125,52.4232593 C94.4978125,51.4497094 93.72125,50.6747986 92.745625,50.6747986 Z M85.7478125,69.8860372 L82.254375,69.8860372 C81.27875,69.8860372 80.5021875,70.660948 80.5021875,71.6257664 C80.5021875,72.5971335 81.27875,73.3720442 82.254375,73.3720442 L85.7478125,73.3720442 C86.7146875,73.3720442 87.5,72.5971335 87.5,71.6257664 C87.5,70.660948 86.7146875,69.8860372 85.7478125,69.8860372 Z M75.245625,69.8860372 L73.504375,69.8860372 C72.52875,69.8860372 71.7521875,70.660948 71.7521875,71.6257664 C71.7521875,72.5971335 72.52875,73.3720442 73.504375,73.3720442 L75.245625,73.3720442 C76.22125,73.3720442 76.9978125,72.5971335 76.9978125,71.6257664 C76.9978125,70.660948 76.22125,69.8860372 75.245625,69.8860372 Z M66.495625,69.8860372 L63.0021875,69.8860372 C62.0353125,69.8860372 61.25,70.660948 61.25,71.6257664 C61.25,72.5971335 62.0353125,73.3720442 63.0021875,73.3720442 L66.495625,73.3720442 C67.47125,73.3720442 68.2478125,72.5971335 68.2478125,71.6257664 C68.2478125,70.660948 67.47125,69.8860372 66.495625,69.8860372 Z M56.004375,69.8860372 L54.2521875,69.8860372 C53.2853125,69.8860372 52.5,70.660948 52.5,71.6257664 C52.5,72.5971335 53.2853125,73.3720442 54.2521875,73.3720442 L56.004375,73.3720442 C56.9690625,73.3720442 57.745625,72.5971335 57.745625,71.6257664 C57.745625,70.660948 56.9690625,69.8860372 56.004375,69.8860372 Z M54.2521875,43.6918703 L71.7521875,43.6918703 C72.716875,43.6918703 73.504375,42.9060453 73.504375,41.9434097 C73.504375,40.9785912 72.716875,40.194949 71.7521875,40.194949 L54.2521875,40.194949 C53.2853125,40.194949 52.5,40.9785912 52.5,41.9434097 C52.5,42.9060453 53.2853125,43.6918703 54.2521875,43.6918703 Z M41.9978125,75.2820356 C40.9128125,75.9390726 36.47,76.8689655 28.0021875,76.8689655 C19.534375,76.8689655 15.089375,75.9390726 13.995625,75.2820356 L13.995625,73.3633128 C13.995625,71.9051709 14.800625,70.5583541 16.0125,69.9013171 L22.763125,66.5768408 C23.8240625,66.0660545 24.4978125,64.9833623 24.4978125,63.8046248 L24.4978125,60.6591419 L23.4478125,60.1985611 C20.79,59.0656634 19.0640625,56.8828162 18.1671875,53.5386942 L17.9178125,52.6109841 L16.996875,52.3293968 C16.261875,52.098015 15.7478125,51.4169667 15.7478125,50.6747986 L15.7478125,48.926338 C15.7478125,48.2954951 16.1153125,47.7061264 16.6971875,47.3917964 L17.5175,46.9574098 L17.6115625,46.0362483 C17.7909375,44.3991128 18.1496875,42.8885825 18.7053125,41.5504972 C18.935,40.9785912 19.131875,40.552936 19.29375,40.2124118 C19.884375,38.9332633 20.1053125,38.2762263 19.9521875,36.938141 C22.010625,38.1059642 24.4803125,38.610202 27.164375,38.4050143 C27.4378125,38.3788201 27.72,38.3700888 28.0021875,38.3700888 C34.5559375,38.3700888 37.751875,40.7406609 38.3753125,46.053711 L38.486875,46.9661412 L39.2984375,47.3917964 C39.886875,47.6995779 40.245625,48.2867638 40.245625,48.926338 L40.245625,50.6747986 C40.245625,51.4169667 39.73375,52.098015 39.0075,52.3293968 L38.084375,52.6109841 L37.8371875,53.5386942 C36.9403125,56.8828162 35.214375,59.0656634 32.5565625,60.1985611 L31.495625,60.6591419 L31.495625,63.8220876 C31.495625,64.9833623 32.1453125,66.0398603 33.18875,66.5681094 L39.78625,69.9275113 L39.7928125,69.9362427 C41.15125,70.6194739 41.9978125,71.9837534 41.9978125,73.5008322 L41.9978125,75.2820356 Z M41.365625,66.8147711 L35,63.5754258 L35,62.8943775 C37.8459375,61.3423731 39.8540625,58.7840761 40.971875,55.2784235 C42.665,54.3747247 43.75,52.6349955 43.75,50.6747986 L43.75,48.926338 C43.75,47.3066654 42.9975,45.8048665 41.733125,44.824768 C40.639375,38.2260208 36.0259375,34.8753503 28.0021875,34.8753503 C27.6171875,34.8753503 27.2496875,34.8906303 26.8909375,34.9168244 C25.370625,35.036881 23.165625,34.9168244 21.2428125,33.6289446 C20.5253125,33.1443525 19.9871875,32.6750403 19.6371875,32.2406537 C19.0553125,31.4897543 18.064375,31.2256297 17.1915625,31.5923481 C16.3121875,31.950335 15.8003125,32.8278396 15.903125,33.7751953 C15.9796875,34.4235009 16.0890625,35.1809489 16.253125,36.0169794 C16.594375,37.7130517 16.594375,37.7130517 16.1153125,38.7368071 C15.9446875,39.1209882 15.72375,39.5903004 15.456875,40.2298746 C14.8859375,41.6356282 14.4659375,43.1876326 14.23625,44.8422308 C12.989375,45.8310606 12.254375,47.3241281 12.254375,48.926338 L12.254375,50.6747986 C12.254375,52.6349955 13.330625,54.3747247 15.0303125,55.2784235 C16.1503125,58.7928075 18.1496875,61.3489216 21.004375,62.900926 L21.004375,63.557963 L14.406875,66.7994912 C11.99625,68.1113824 10.5021875,70.6260224 10.5021875,73.3633128 L10.5021875,75.6749481 C10.5021875,77.0741531 10.5021875,80.3571554 28.0021875,80.3571554 C45.5021875,80.3571554 45.5021875,77.0741531 45.5021875,75.6749481 L45.5021875,73.5008322 C45.5021875,70.6522166 43.911875,68.0939196 41.365625,66.8147711 Z M91.5075,70.3531665 C91.1925,70.6871421 91.004375,71.1477229 91.004375,71.5995723 C91.004375,72.0514216 91.175,72.503271 91.5075,72.8350638 C91.84,73.1515767 92.2928125,73.3480329 92.745625,73.3480329 C93.2071875,73.3480329 93.66,73.1515767 93.9946875,72.8350638 C94.3096875,72.503271 94.4978125,72.0514216 94.4978125,71.5995723 C94.4978125,71.1477229 94.3096875,70.6871421 93.9946875,70.3531665 C93.345,69.731055 92.1746875,69.7157751 91.5075,70.3531665 Z" id="Fill-2" fill="#313131"></path>
                </g>
            </g>
        </g>
    </g>
</svg>