<?xml version="1.0" encoding="UTF-8" standalone="no"?>
<svg width="105px" height="123px" viewBox="0 0 105 123" version="1.1" xmlns="http://www.w3.org/2000/svg" xmlns:xlink="http://www.w3.org/1999/xlink">
    <!-- Generator: Sketch 50.2 (55047) - http://www.bohemiancoding.com/sketch -->
    <title>Page 1</title>
    <desc>Created with Sketch.</desc>
    <defs>
        <polygon id="path-1" points="0 0 104.784042 0 104.784042 122.163462 0 122.163462"></polygon>
    </defs>
    <g id="Symbols" stroke="none" stroke-width="1" fill="none" fill-rule="evenodd">
        <g id="Side-Step-1" transform="translate(-194.000000, -360.000000)">
            <g id="Group-3" transform="translate(48.000000, 360.000000)">
                <g id="Page-1" transform="translate(146.000000, 0.000000)">
                    <polygon id="Fill-1" fill="#EF6322" points="57.5480769 17.1634615 78.75 17.1634615 78.75 3.02884615 57.5480769 3.02884615"></polygon>
                    <g id="Group-4">
                        <mask id="mask-2" fill="white">
                            <use xlink:href="#path-1"></use>
                        </mask>
                        <g id="Clip-3"></g>
                        <path d="M24.7431019,42.0347395 C23.652616,42.0347395 22.7681803,42.917469 22.7681803,44.0051179 L22.7681803,50.0469549 C22.7681803,51.1362457 23.652616,52.0173333 24.7431019,52.0173333 C25.8335878,52.0173333 26.7180235,51.1362457 26.7180235,50.0469549 L26.7180235,44.0051179 C26.7180235,42.917469 25.8335878,42.0347395 24.7431019,42.0347395 Z M77.4682429,4.33450411 L77.4682429,14.843189 C77.4682429,15.0612442 77.2908292,15.2369363 77.0732586,15.2369363 L59.247616,15.2369363 L59.247616,3.94075682 L77.0732586,3.94075682 C77.2908292,3.94075682 77.4682429,4.11776248 77.4682429,4.33450411 Z M57.2726944,74.5394153 C58.3628511,74.5394153 59.247616,73.6570142 59.247616,72.5690369 L59.247616,19.1776931 L77.0732586,19.1776931 C79.4688386,19.1776931 81.4180862,17.233258 81.4180862,14.843189 L81.4180862,4.33450411 C81.4180862,1.94476349 79.4688386,0 77.0732586,0 L57.2726944,0 C56.1828668,0 55.2977727,0.882729529 55.2977727,1.97037841 L55.2977727,72.5690369 C55.2977727,73.6570142 56.1828668,74.5394153 57.2726944,74.5394153 Z M3.94981034,53.5850977 C3.94981034,42.1463942 13.2780235,32.8396402 24.7431019,32.8396402 C36.2081803,32.8396402 45.5363934,42.1463942 45.5363934,53.5850977 L45.5363934,89.5829261 L3.94981034,89.5829261 L3.94981034,53.5850977 Z M80.0409075,28.8988834 L65.1723809,28.8988834 C64.0822241,28.8988834 63.1974592,29.7816129 63.1974592,30.8692618 C63.1974592,31.9569107 64.0822241,32.8396402 65.1723809,32.8396402 L80.0409075,32.8396402 C91.5059859,32.8396402 100.834199,42.1463942 100.834199,53.5850977 L100.834199,89.5829261 L49.4862367,89.5829261 L49.4862367,53.5850977 C49.4862367,44.8954005 44.9616912,37.2394952 38.1393245,32.8396402 L49.3730078,32.8396402 C50.4631646,32.8396402 51.3479295,31.9569107 51.3479295,30.8692618 C51.3479295,29.7816129 50.4631646,28.8988834 49.3730078,28.8988834 L24.7431019,28.8988834 C11.1000141,28.8988834 -3.29153605e-05,39.9733952 -3.29153605e-05,53.5850977 L-3.29153605e-05,91.5533045 C-3.29153605e-05,92.6412818 0.884731975,93.5236829 1.97488871,93.5236829 L45.5363934,93.5236829 L45.5363934,120.193083 C45.5363934,121.280732 46.4208292,122.163462 47.511315,122.163462 C48.6014718,122.163462 49.4862367,121.280732 49.4862367,120.193083 L49.4862367,93.5236829 L55.2977727,93.5236829 L55.2977727,120.193083 C55.2977727,121.280732 56.1828668,122.163462 57.2726944,122.163462 C58.3628511,122.163462 59.247616,121.280732 59.247616,120.193083 L59.247616,93.5236829 L102.809121,93.5236829 C103.899277,93.5236829 104.784042,92.6412818 104.784042,91.5533045 L104.784042,53.5850977 C104.784042,39.9733952 93.6839953,28.8988834 80.0409075,28.8988834 Z" id="Fill-2" fill="#313131" mask="url(#mask-2)"></path>
                    </g>
                </g>
            </g>
        </g>
    </g>
</svg>