<?xml version="1.0" encoding="utf-8"?>
<!-- Generator: Adobe Illustrator 16.0.0, SVG Export Plug-In . SVG Version: 6.00 Build 0)  -->
<!DOCTYPE svg PUBLIC "-//W3C//DTD SVG 1.1//EN" "http://www.w3.org/Graphics/SVG/1.1/DTD/svg11.dtd">
<svg version="1.1" id="Layer_1" xmlns="http://www.w3.org/2000/svg" xmlns:xlink="http://www.w3.org/1999/xlink" x="0px" y="0px"
	 width="580px" height="372px" viewBox="0 0 580 372" enable-background="new 0 0 580 372" xml:space="preserve">
<g>
	<g>
		<path fill="#DB4A26" d="M290,197.273c-52.346,0-94.932-42.585-94.932-94.932c0-52.346,42.586-94.932,94.932-94.932
			s94.932,42.586,94.932,94.932C384.932,154.688,342.346,197.273,290,197.273z M290,20.873c-44.923,0-81.472,36.547-81.472,81.471
			c0,44.923,36.549,81.47,81.472,81.47s81.471-36.547,81.471-81.47C371.471,57.42,334.923,20.873,290,20.873z"/>
	</g>
	<g>
		<g>
			<path fill="#DB4A26" d="M298.438,68.83c5.953-9.836,23.266-11.527,34.586-4.793c15.142,9.007,20.761,28.604,13.104,46.536
				c-8.71,20.396-24.741,34.434-42.03,47.179c-14.211,10.476-14.395,10.324-28.674-0.396c-15.36-11.534-29.669-24.116-38.881-41.408
				c-6.498-12.195-8.586-24.793-2.256-37.765c5.905-12.104,15.858-18.174,29.179-18.266c13.583-0.095,23.622,6.364,30.429,17.97
				c0.418,0.714,0.207,1.797-1.031,3.68c-1.436-1.619-2.923-3.196-4.298-4.865c-10.471-12.718-26.69-16.702-39.056-9.568
				c-12.899,7.443-18.308,23.603-12.98,38.995c4.682,13.525,13.512,24.231,23.964,33.532c8.128,7.231,16.884,13.78,25.606,20.3
				c1.584,1.184,5.106,1.858,6.478,0.925c20.395-13.914,40.028-28.719,50.118-52.436c4.291-10.083,4.128-20.293-1.141-30.142
				c-6.986-13.061-22.812-18.099-37.383-11.938C302.257,67.181,300.348,68.01,298.438,68.83z"/>
		</g>
		<g>
			<path fill="#DB4A26" d="M243.394,99.3c-3.356-17.101,8.199-30.085,21.851-26.442c-5.142,3.044-11.318,5.08-14.938,9.309
				C246.798,86.266,245.924,92.617,243.394,99.3z"/>
		</g>
	</g>
</g>
<g>
	<path fill="#4E5051" d="M272.464,341.632v17.845h-4.079v-7.088h-5.608v7.088h-4.079v-17.845h4.079v6.832h5.608v-6.832H272.464z"/>
	<path fill="#4E5051" d="M281.867,356.417c1.046,0,1.937-0.408,2.445-0.969l3.061,1.76c-1.248,1.733-3.136,2.626-5.558,2.626
		c-4.358,0-7.062-2.933-7.062-6.73c0-3.797,2.753-6.729,6.78-6.729c3.722,0,6.476,2.881,6.476,6.729
		c0,0.535-0.052,1.047-0.153,1.529h-9.049C279.292,355.958,280.465,356.417,281.867,356.417z M284.212,351.778
		c-0.408-1.479-1.555-2.018-2.701-2.018c-1.454,0-2.422,0.715-2.779,2.018H284.212z"/>
	<path fill="#4E5051" d="M303.123,346.73v12.744h-3.824v-1.196c-0.841,0.969-2.089,1.556-3.798,1.556
		c-3.339,0-6.092-2.933-6.092-6.73c0-3.797,2.753-6.729,6.092-6.729c1.709,0,2.957,0.586,3.798,1.556v-1.196h3.824V346.73z
		 M299.299,353.104c0-1.91-1.273-3.108-3.031-3.108c-1.761,0-3.035,1.198-3.035,3.108c0,1.911,1.274,3.11,3.035,3.11
		C298.023,356.214,299.299,355.015,299.299,353.104z"/>
	<path fill="#4E5051" d="M305.925,340.866h3.823v18.608h-3.823V340.866z"/>
	<path fill="#4E5051" d="M317.396,350.401v4.512c0,1.096,0.942,1.198,2.625,1.096v3.468c-4.996,0.512-6.449-0.992-6.449-4.563
		v-4.512h-2.04v-3.671h2.04v-2.424l3.824-1.146v3.569h2.625v3.671L317.396,350.401L317.396,350.401z"/>
	<path fill="#4E5051" d="M334.421,351.649v7.825h-3.823v-7.266c0-1.58-0.994-2.319-2.219-2.319c-1.4,0-2.37,0.814-2.37,2.626v6.959
		h-3.823V341.63h3.823v6.297c0.688-0.941,1.964-1.556,3.646-1.556C332.229,346.373,334.421,348.209,334.421,351.649z"/>
	<path fill="#4E5051" d="M347.623,341.632v17.845h-4.079v-17.845H347.623z"/>
	<path fill="#4E5051" d="M362.788,351.649v7.825h-3.824v-7.266c0-1.58-0.993-2.319-2.218-2.319c-1.4,0-2.37,0.814-2.37,2.626v6.959
		h-3.823V346.73h3.823v1.196c0.688-0.941,1.963-1.556,3.646-1.556C360.596,346.373,362.788,348.209,362.788,351.649z"/>
	<path fill="#4E5051" d="M370.052,346.73h2.37v3.671h-2.37v9.073h-3.825v-9.073h-1.707v-3.671h1.707
		c0-3.569,1.963-5.713,6.195-5.456v3.671C370.994,344.817,370.052,345.252,370.052,346.73z"/>
	<path fill="#4E5051" d="M372.803,353.104c0-3.798,3.008-6.729,6.756-6.729c3.746,0,6.756,2.933,6.756,6.729
		c0,3.799-3.01,6.73-6.756,6.73C375.811,359.834,372.803,356.901,372.803,353.104z M382.49,353.104c0-1.81-1.275-3.008-2.934-3.008
		c-1.656,0-2.932,1.198-2.932,3.008c0,1.812,1.272,3.01,2.932,3.01C381.214,356.111,382.49,354.913,382.49,353.104z"/>
	<path fill="#4E5051" d="M396.124,346.476v4.333c-1.58-0.255-3.824,0.385-3.824,2.907v5.761h-3.821V346.73h3.821v2.269
		C392.811,347.29,394.52,346.476,396.124,346.476z"/>
	<path fill="#4E5051" d="M417.026,351.649v7.825h-3.824v-7.492c0-1.276-0.61-2.093-1.836-2.093c-1.273,0-1.987,0.894-1.987,2.396
		v7.188h-3.824v-7.493c0-1.275-0.61-2.092-1.835-2.092c-1.273,0-1.988,0.894-1.988,2.396v7.188h-3.822V346.73h3.822v1.172
		c0.586-0.866,1.709-1.529,3.415-1.529c1.506,0,2.628,0.612,3.342,1.683c0.713-1.02,1.888-1.683,3.695-1.683
		C415.114,346.373,417.026,348.464,417.026,351.649z"/>
	<path fill="#4E5051" d="M432.726,346.73v12.744h-3.823v-1.196c-0.843,0.969-2.09,1.556-3.8,1.556c-3.339,0-6.092-2.933-6.092-6.73
		c0-3.797,2.753-6.729,6.092-6.729c1.71,0,2.957,0.586,3.8,1.556v-1.196h3.823V346.73z M428.901,353.104
		c0-1.91-1.274-3.108-3.033-3.108c-1.76,0-3.033,1.198-3.033,3.108c0,1.911,1.273,3.11,3.033,3.11
		C427.626,356.214,428.901,355.015,428.901,353.104z"/>
	<path fill="#4E5051" d="M440.369,350.401v4.512c0,1.096,0.942,1.198,2.626,1.096v3.468c-4.997,0.512-6.449-0.992-6.449-4.563
		v-4.512h-2.04v-3.671h2.04v-2.424l3.823-1.146v3.569h2.626v3.671L440.369,350.401L440.369,350.401z"/>
	<path fill="#4E5051" d="M444.777,343.314c0-1.25,1.045-2.297,2.294-2.297c1.25,0,2.295,1.047,2.295,2.297
		c0,1.247-1.045,2.293-2.295,2.293C445.822,345.607,444.777,344.563,444.777,343.314z M445.159,346.73h3.823v12.744h-3.823V346.73z"
		/>
	<path fill="#4E5051" d="M451.15,353.104c0-3.798,3.008-6.729,6.755-6.729s6.755,2.933,6.755,6.729c0,3.799-3.008,6.73-6.755,6.73
		S451.15,356.901,451.15,353.104z M460.837,353.104c0-1.81-1.274-3.008-2.933-3.008s-2.933,1.198-2.933,3.008
		c0,1.812,1.272,3.01,2.933,3.01C459.563,356.111,460.837,354.913,460.837,353.104z"/>
	<path fill="#4E5051" d="M479.061,351.649v7.825h-3.823v-7.266c0-1.58-0.993-2.319-2.218-2.319c-1.401,0-2.371,0.814-2.371,2.626
		v6.959h-3.823V346.73h3.823v1.196c0.688-0.941,1.964-1.556,3.646-1.556C476.867,346.373,479.061,348.209,479.061,351.649z"/>
	<path fill="#4E5051" d="M487.288,355.423l3.52-2.039c0.638,1.479,1.733,2.475,3.747,2.475c1.938,0,2.421-0.767,2.421-1.452
		c0-1.099-1.02-1.53-3.694-2.271c-2.65-0.738-5.252-2.014-5.252-5.43c0-3.441,2.905-5.43,5.99-5.43c2.933,0,5.227,1.4,6.526,4.026
		l-3.44,2.016c-0.612-1.274-1.453-2.064-3.086-2.064c-1.273,0-1.911,0.637-1.911,1.353c0,0.814,0.435,1.377,3.212,2.219
		c2.701,0.813,5.735,1.758,5.735,5.531c0,3.439-2.754,5.479-6.628,5.479C490.681,359.834,488.282,358.049,487.288,355.423z"/>
	<path fill="#4E5051" d="M514.564,346.73l-4.359,12.362c-1.427,4.055-3.695,5.658-7.266,5.48v-3.569
		c1.784,0,2.626-0.562,3.188-2.115l-5.072-12.158h4.206l2.83,7.801l2.396-7.801H514.564L514.564,346.73z"/>
	<path fill="#4E5051" d="M525.091,355.652c0,2.932-2.552,4.182-5.304,4.182c-2.551,0-4.485-0.97-5.479-3.034l3.313-1.887
		c0.331,0.969,1.047,1.504,2.167,1.504c0.917,0,1.376-0.279,1.376-0.79c0-1.402-6.271-0.663-6.271-5.073
		c0-2.776,2.345-4.181,4.996-4.181c2.063,0,3.899,0.917,4.972,2.728l-3.264,1.761c-0.356-0.662-0.866-1.121-1.708-1.121
		c-0.663,0-1.07,0.255-1.07,0.714C518.818,351.905,525.091,350.938,525.091,355.652z"/>
	<path fill="#4E5051" d="M531.461,350.401v4.512c0,1.096,0.942,1.198,2.626,1.096v3.468c-4.996,0.512-6.45-0.992-6.45-4.563v-4.512
		h-2.04v-3.671h2.04v-2.424l3.824-1.146v3.569h2.625v3.671L531.461,350.401L531.461,350.401z"/>
	<path fill="#4E5051" d="M542.472,356.417c1.045,0,1.937-0.408,2.446-0.969l3.059,1.76c-1.248,1.733-3.135,2.626-5.557,2.626
		c-4.359,0-7.063-2.933-7.063-6.73c0-3.797,2.754-6.729,6.779-6.729c3.724,0,6.477,2.881,6.477,6.729
		c0,0.535-0.052,1.047-0.151,1.529h-9.051C539.896,355.958,541.068,356.417,542.472,356.417z M544.815,351.778
		c-0.408-1.479-1.555-2.018-2.701-2.018c-1.454,0-2.422,0.715-2.778,2.018H544.815z"/>
	<path fill="#4E5051" d="M569.896,351.649v7.825h-3.823v-7.492c0-1.276-0.61-2.093-1.836-2.093c-1.273,0-1.986,0.894-1.986,2.396
		v7.188h-3.824v-7.493c0-1.275-0.611-2.092-1.836-2.092c-1.273,0-1.988,0.894-1.988,2.396v7.188h-3.822V346.73h3.822v1.172
		c0.587-0.866,1.709-1.529,3.416-1.529c1.506,0,2.627,0.612,3.341,1.683c0.714-1.02,1.888-1.683,3.695-1.683
		C567.985,346.373,569.896,348.464,569.896,351.649z"/>
</g>
<g>
	<g>
		<path fill="#4E5051" d="M255.925,287.88c0-23.229,17.615-41.157,41.312-41.157c15.123,0,28.529,7.951,35.233,19.955
			l-20.422,11.848c-2.649-5.455-8.264-8.729-15.124-8.729c-10.132,0-17.615,7.328-17.615,18.085
			c0,10.756,7.483,18.085,17.615,18.085c6.86,0,12.63-3.274,15.124-8.731l20.422,11.692c-6.704,12.161-19.955,20.109-35.233,20.109
			C273.54,329.035,255.925,311.108,255.925,287.88z"/>
		<path fill="#4E5051" d="M420.236,248.904v77.949H396.85v-7.326c-5.145,5.923-12.781,9.508-23.229,9.508
			c-20.422,0-37.259-17.927-37.259-41.155c0-23.228,16.837-41.157,37.259-41.157c10.447,0,18.085,3.586,23.229,9.512v-7.328h23.386
			V248.904z M396.851,287.88c0-11.692-7.796-19.021-18.55-19.021c-10.758,0-18.552,7.326-18.552,19.021
			c0,11.692,7.794,19.021,18.552,19.021C389.055,306.9,396.851,299.572,396.851,287.88z"/>
		<path fill="#4E5051" d="M484.147,247.346v26.504c-9.665-1.56-23.384,2.338-23.384,17.771v35.233H437.38v-77.949h23.384v13.875
			C463.883,252.335,474.325,247.346,484.147,247.346z"/>
		<path fill="#4E5051" d="M532.316,308.146c6.394,0,11.85-2.494,14.969-5.924l18.707,10.756
			c-7.64,10.601-19.173,16.058-33.986,16.058c-26.658,0-43.183-17.927-43.183-41.155s16.835-41.156,41.468-41.156
			c22.764,0,39.599,17.616,39.599,41.156c0,3.273-0.313,6.391-0.937,9.354H513.61C516.571,305.34,523.741,308.146,532.316,308.146z
			 M546.661,279.773c-2.495-9.043-9.512-12.317-16.527-12.317c-8.886,0-14.811,4.364-16.992,12.317H546.661z"/>
	</g>
	<g>
		<g>
			<polygon fill="#4E5051" points="52.966,276.342 32.946,276.342 32.946,246.116 10.111,246.116 10.111,329.853 32.946,329.853 
				32.946,298.501 52.966,298.501 52.966,329.853 75.803,329.853 75.803,246.116 52.966,246.116 			"/>
			<rect x="95.872" y="246.116" fill="#4E5051" width="22.837" height="83.735"/>
			<path fill="#4E5051" d="M170.574,278.023c-12.51-3.787-12.51-5.854-12.51-7.519c0-2.176,2.38-3.582,6.063-3.582
				c5.579,0,8.799,2.181,11.485,7.777l1.128,2.342l19.396-11.351l-0.992-2.002c-6.115-12.352-17.131-19.153-31.017-19.153
				c-14.36,0-28.898,9.073-28.898,26.417c0,17.163,13.354,23.088,24.989,26.333c12.391,3.424,14.596,5.001,14.596,7.728
				c0,3.334-4.522,4.033-8.316,4.033c-7.021,0-11.588-3.016-14.379-9.492l-1.068-2.477l-19.655,11.393l0.721,1.902
				c5.065,13.382,17.393,21.057,33.817,21.057c19.27,0,31.718-10.458,31.718-26.643C197.65,286.195,182.637,281.664,170.574,278.023
				z"/>
		</g>
		<path fill="#4E5051" d="M203.147,282.605h42.854v16.237h-42.854V282.605z"/>
	</g>
</g>
</svg>
