<?xml version="1.0" encoding="utf-8"?>
<!-- Generator: Adobe Illustrator 16.0.0, SVG Export Plug-In . SVG Version: 6.00 Build 0)  -->
<!DOCTYPE svg PUBLIC "-//W3C//DTD SVG 1.1//EN" "http://www.w3.org/Graphics/SVG/1.1/DTD/svg11.dtd">
<svg version="1.1" id="Layer_1" xmlns="http://www.w3.org/2000/svg" xmlns:xlink="http://www.w3.org/1999/xlink" x="0px" y="0px"
	 width="504px" height="350px" viewBox="0 0 504 350" enable-background="new 0 0 504 350" xml:space="preserve">
<g>
	<g>
		<path fill="#4E5051" d="M79.135,289.327v45.65H56.827v-42.379c0-9.219-5.8-13.531-12.934-13.531
			c-8.181,0-13.832,4.758-13.832,15.314v40.596H7.76v-104.09h22.302v36.73c4.014-5.502,11.449-9.071,21.269-9.071
			C66.344,258.547,79.135,269.254,79.135,289.327z"/>
		<path fill="#4E5051" d="M92.224,240.704c0-7.287,6.092-13.383,13.382-13.383c7.281,0,13.382,6.096,13.382,13.383
			c0,7.284-6.101,13.381-13.382,13.381C98.315,254.085,92.224,247.988,92.224,240.704z M94.45,260.63h22.302v74.348H94.45V260.63z"
			/>
		<path fill="#4E5051" d="M190.067,312.672c0,17.101-14.872,24.386-30.932,24.386c-14.866,0-26.168-5.65-31.968-17.693
			l19.329-11.004c1.934,5.651,6.094,8.771,12.639,8.771c5.355,0,8.033-1.634,8.033-4.607c0-8.178-36.584-3.865-36.584-29.592
			c0-16.207,13.685-24.386,29.146-24.386c12.047,0,22.752,5.353,28.993,15.911l-19.034,10.26c-2.08-3.867-5.053-6.543-9.959-6.543
			c-3.865,0-6.248,1.488-6.248,4.164C153.483,290.813,190.067,285.165,190.067,312.672z"/>
		<path fill="#4E5051" d="M196.76,297.804c0-22.156,16.805-39.257,39.409-39.257c14.422,0,27.206,7.585,33.604,19.034
			l-19.484,11.299c-2.522-5.204-7.88-8.326-14.422-8.326c-9.665,0-16.799,6.99-16.799,17.25c0,10.258,7.134,17.248,16.799,17.248
			c6.542,0,12.047-3.121,14.422-8.326l19.484,11.151c-6.397,11.598-19.034,19.181-33.604,19.181
			C213.564,337.058,196.76,319.958,196.76,297.804z"/>
		<path fill="#4E5051" d="M353.489,260.63v74.348h-22.302v-6.99c-4.913,5.651-12.194,9.07-22.162,9.07
			c-19.476,0-35.536-17.1-35.536-39.254c0-22.156,16.061-39.257,35.536-39.257c9.968,0,17.249,3.419,22.162,9.071v-6.988H353.489z
			 M331.188,297.804c0-11.152-7.437-18.141-17.697-18.141c-10.263,0-17.699,6.988-17.699,18.141c0,11.15,7.437,18.141,17.699,18.141
			C323.751,315.944,331.188,308.954,331.188,297.804z"/>
		<path fill="#4E5051" d="M414.456,259.142v25.279c-9.216-1.488-22.303,2.23-22.303,16.949v33.607h-22.309V260.63h22.309v13.232
			C395.127,263.899,405.086,259.142,414.456,259.142z"/>
		<path fill="#4E5051" d="M460.407,317.132c6.095,0,11.296-2.375,14.275-5.646l17.84,10.258
			c-7.283,10.11-18.289,15.314-32.418,15.314c-25.429,0-41.186-17.1-41.186-39.254c0-22.156,16.06-39.257,39.55-39.257
			c21.71,0,37.771,16.802,37.771,39.257c0,3.121-0.296,6.098-0.893,8.922h-52.784C445.388,314.458,452.226,317.132,460.407,317.132z
			 M474.085,290.07c-2.382-8.624-9.073-11.747-15.766-11.747c-8.475,0-14.127,4.164-16.207,11.747H474.085z"/>
	</g>
	<g>
		<g>
			<path fill="#FE9D2A" d="M252,202.804c-52.345,0-94.931-42.585-94.931-94.93c0-52.346,42.586-94.932,94.931-94.932
				s94.931,42.586,94.931,94.932C346.931,160.219,304.345,202.804,252,202.804z M252,26.403c-44.923,0-81.471,36.547-81.471,81.471
				c0,44.923,36.548,81.47,81.471,81.47s81.471-36.547,81.471-81.47C333.471,62.95,296.923,26.403,252,26.403z"/>
		</g>
		<g>
			<g>
				<path fill-rule="evenodd" clip-rule="evenodd" fill="#FE9D2A" d="M260.437,74.36c5.953-9.836,23.265-11.527,34.586-4.793
					c15.141,9.007,20.76,28.604,13.103,46.536c-8.71,20.396-24.741,34.434-42.03,47.179c-14.211,10.476-14.395,10.324-28.674-0.396
					c-15.36-11.534-29.669-24.116-38.881-41.408c-6.498-12.195-8.586-24.793-2.256-37.765c5.906-12.104,15.859-18.174,29.179-18.266
					c13.583-0.095,23.622,6.364,30.429,17.97c0.418,0.714,0.207,1.797-1.031,3.68c-1.436-1.619-2.924-3.196-4.299-4.865
					c-10.469-12.718-26.689-16.702-39.054-9.568c-12.899,7.443-18.308,23.603-12.98,38.995
					c4.681,13.525,13.511,24.231,23.963,33.532c8.128,7.231,16.884,13.78,25.607,20.3c1.584,1.184,5.106,1.858,6.477,0.925
					c20.394-13.914,40.03-28.719,50.12-52.436c4.29-10.083,4.127-20.293-1.141-30.142c-6.986-13.061-22.812-18.099-37.383-11.938
					C264.257,72.711,262.348,73.54,260.437,74.36z"/>
			</g>
			<g>
				<path fill-rule="evenodd" clip-rule="evenodd" fill="#FE9D2A" d="M205.394,104.83c-3.357-17.101,8.199-30.085,21.85-26.442
					c-5.141,3.044-11.318,5.08-14.938,9.309C208.798,91.796,207.924,98.147,205.394,104.83z"/>
			</g>
		</g>
	</g>
</g>
</svg>
