<?xml version="1.0" encoding="utf-8"?>
<!-- Generator: Adobe Illustrator 16.0.0, SVG Export Plug-In . SVG Version: 6.00 Build 0)  -->
<!DOCTYPE svg PUBLIC "-//W3C//DTD SVG 1.1//EN" "http://www.w3.org/Graphics/SVG/1.1/DTD/svg11.dtd">
<svg version="1.1" id="Layer_1" xmlns="http://www.w3.org/2000/svg" xmlns:xlink="http://www.w3.org/1999/xlink" x="0px" y="0px"
	 width="504px" height="372px" viewBox="0 0 504 372" enable-background="new 0 0 504 372" xml:space="preserve">
<g>
	<g>
		<g>
			<path fill="#4E5051" d="M79.135,286.351v45.65H56.827v-42.379c0-9.219-5.8-13.531-12.934-13.531
				c-8.181,0-13.832,4.758-13.832,15.314v40.596H7.76v-104.09h22.302v36.73c4.014-5.502,11.449-9.071,21.269-9.071
				C66.344,255.57,79.135,266.277,79.135,286.351z"/>
			<path fill="#4E5051" d="M92.224,237.728c0-7.287,6.092-13.383,13.382-13.383c7.281,0,13.382,6.096,13.382,13.383
				c0,7.284-6.101,13.381-13.382,13.381C98.315,251.108,92.224,245.012,92.224,237.728z M94.45,257.653h22.302v74.348H94.45V257.653
				z"/>
			<path fill="#4E5051" d="M190.067,309.695c0,17.101-14.872,24.386-30.932,24.386c-14.866,0-26.168-5.65-31.968-17.693
				l19.329-11.004c1.934,5.651,6.094,8.771,12.639,8.771c5.355,0,8.033-1.634,8.033-4.607c0-8.178-36.584-3.865-36.584-29.592
				c0-16.207,13.685-24.386,29.146-24.386c12.047,0,22.752,5.353,28.993,15.911l-19.034,10.26c-2.08-3.867-5.053-6.543-9.959-6.543
				c-3.865,0-6.248,1.488-6.248,4.164C153.483,287.837,190.067,282.188,190.067,309.695z"/>
			<path fill="#4E5051" d="M196.76,294.827c0-22.156,16.805-39.257,39.409-39.257c14.422,0,27.206,7.585,33.604,19.034
				l-19.484,11.299c-2.522-5.204-7.88-8.326-14.422-8.326c-9.665,0-16.799,6.99-16.799,17.25c0,10.258,7.134,17.248,16.799,17.248
				c6.542,0,12.047-3.121,14.422-8.326l19.484,11.151c-6.397,11.598-19.034,19.181-33.604,19.181
				C213.564,334.081,196.76,316.981,196.76,294.827z"/>
			<path fill="#4E5051" d="M353.489,257.653v74.348h-22.302v-6.99c-4.913,5.651-12.194,9.07-22.162,9.07
				c-19.476,0-35.536-17.1-35.536-39.254c0-22.156,16.061-39.257,35.536-39.257c9.968,0,17.249,3.419,22.162,9.071v-6.988H353.489z
				 M331.188,294.827c0-11.152-7.437-18.141-17.697-18.141c-10.263,0-17.699,6.988-17.699,18.141
				c0,11.15,7.437,18.141,17.699,18.141C323.751,312.968,331.188,305.978,331.188,294.827z"/>
			<path fill="#4E5051" d="M414.456,256.165v25.279c-9.216-1.488-22.303,2.23-22.303,16.949v33.607h-22.309v-74.348h22.309v13.232
				C395.127,260.923,405.086,256.165,414.456,256.165z"/>
			<path fill="#4E5051" d="M460.407,314.155c6.095,0,11.296-2.375,14.275-5.646l17.84,10.258
				c-7.283,10.11-18.289,15.314-32.418,15.314c-25.429,0-41.186-17.1-41.186-39.254c0-22.156,16.06-39.257,39.55-39.257
				c21.71,0,37.771,16.802,37.771,39.257c0,3.121-0.296,6.098-0.893,8.922h-52.784C445.388,311.481,452.226,314.155,460.407,314.155
				z M474.085,287.094c-2.382-8.624-9.073-11.747-15.766-11.747c-8.475,0-14.127,4.164-16.207,11.747H474.085z"/>
		</g>
		<g>
			<g>
				<path fill="#FE9D2A" d="M252,199.827c-52.345,0-94.931-42.585-94.931-94.93c0-52.346,42.586-94.932,94.931-94.932
					s94.931,42.586,94.931,94.932C346.931,157.242,304.345,199.827,252,199.827z M252,23.427c-44.923,0-81.471,36.547-81.471,81.471
					c0,44.923,36.548,81.47,81.471,81.47s81.471-36.547,81.471-81.47C333.471,59.974,296.923,23.427,252,23.427z"/>
			</g>
			<g>
				<g>
					<path fill-rule="evenodd" clip-rule="evenodd" fill="#FE9D2A" d="M260.437,71.384c5.953-9.836,23.265-11.527,34.586-4.793
						c15.141,9.007,20.76,28.604,13.103,46.536c-8.71,20.396-24.741,34.434-42.03,47.179c-14.211,10.476-14.395,10.324-28.674-0.396
						c-15.36-11.534-29.669-24.116-38.881-41.408c-6.498-12.195-8.586-24.793-2.256-37.765
						c5.906-12.104,15.859-18.174,29.179-18.266c13.583-0.095,23.622,6.364,30.429,17.97c0.418,0.714,0.207,1.797-1.031,3.68
						c-1.436-1.619-2.924-3.196-4.299-4.865c-10.469-12.718-26.689-16.702-39.054-9.568c-12.899,7.443-18.308,23.603-12.98,38.995
						c4.681,13.525,13.511,24.231,23.963,33.532c8.128,7.231,16.884,13.78,25.607,20.3c1.584,1.184,5.106,1.858,6.477,0.925
						c20.394-13.914,40.03-28.719,50.12-52.436c4.29-10.083,4.127-20.293-1.141-30.142c-6.986-13.061-22.812-18.099-37.383-11.938
						C264.257,69.734,262.348,70.563,260.437,71.384z"/>
				</g>
				<g>
					<path fill-rule="evenodd" clip-rule="evenodd" fill="#FE9D2A" d="M205.394,101.854c-3.357-17.101,8.199-30.085,21.85-26.442
						c-5.141,3.044-11.318,5.08-14.938,9.309C208.798,88.819,207.924,95.171,205.394,101.854z"/>
				</g>
			</g>
		</g>
	</g>
	<g>
		<path fill="#4E5051" d="M262.843,344.021v14.003h-3.201v-5.562h-4.4v5.562h-3.201v-14.003h3.201v5.361h4.4v-5.361H262.843z"/>
		<path fill="#4E5051" d="M270.222,355.623c0.82,0,1.52-0.32,1.92-0.761l2.4,1.381c-0.979,1.36-2.46,2.061-4.36,2.061
			c-3.421,0-5.541-2.301-5.541-5.281s2.16-5.281,5.32-5.281c2.921,0,5.081,2.261,5.081,5.281c0,0.42-0.04,0.82-0.12,1.2h-7.101
			C268.201,355.263,269.121,355.623,270.222,355.623z M272.062,351.982c-0.32-1.16-1.22-1.581-2.12-1.581
			c-1.141,0-1.9,0.561-2.181,1.581H272.062z"/>
		<path fill="#4E5051" d="M286.901,348.021v10.002H283.9v-0.94c-0.66,0.761-1.64,1.221-2.98,1.221c-2.62,0-4.78-2.301-4.78-5.281
			s2.16-5.281,4.78-5.281c1.341,0,2.32,0.46,2.98,1.221v-0.94H286.901z M283.9,353.022c0-1.5-1-2.44-2.38-2.44
			c-1.381,0-2.381,0.94-2.381,2.44s1,2.44,2.381,2.44C282.9,355.463,283.9,354.522,283.9,353.022z"/>
		<path fill="#4E5051" d="M289.1,343.42h3v14.604h-3V343.42z"/>
		<path fill="#4E5051" d="M298.101,350.902v3.54c0,0.86,0.74,0.94,2.061,0.86v2.721c-3.921,0.4-5.062-0.78-5.062-3.581v-3.54h-1.601
			v-2.881h1.601v-1.9l3.001-0.9v2.801h2.061v2.881H298.101z"/>
		<path fill="#4E5051" d="M311.461,351.882v6.142h-3.001v-5.701c0-1.24-0.779-1.82-1.74-1.82c-1.1,0-1.86,0.64-1.86,2.061v5.461h-3
			v-14.003h3v4.941c0.54-0.74,1.541-1.221,2.861-1.221C309.74,347.741,311.461,349.182,311.461,351.882z"/>
		<path fill="#4E5051" d="M321.82,344.021v14.003h-3.201v-14.003H321.82z"/>
		<path fill="#4E5051" d="M333.721,351.882v6.142h-3.001v-5.701c0-1.24-0.779-1.82-1.74-1.82c-1.1,0-1.86,0.64-1.86,2.061v5.461h-3
			v-10.002h3v0.94c0.54-0.74,1.541-1.221,2.861-1.221C332,347.741,333.721,349.182,333.721,351.882z"/>
		<path fill="#4E5051" d="M339.42,348.021h1.86v2.881h-1.86v7.121h-3.001v-7.121h-1.34v-2.881h1.34c0-2.801,1.54-4.481,4.861-4.281
			v2.881C340.16,346.521,339.42,346.861,339.42,348.021z"/>
		<path fill="#4E5051" d="M341.579,353.022c0-2.98,2.36-5.281,5.301-5.281s5.301,2.301,5.301,5.281s-2.36,5.281-5.301,5.281
			S341.579,356.003,341.579,353.022z M349.181,353.022c0-1.42-1.001-2.36-2.301-2.36c-1.301,0-2.301,0.94-2.301,2.36
			s1,2.36,2.301,2.36C348.18,355.383,349.181,354.442,349.181,353.022z"/>
		<path fill="#4E5051" d="M359.88,347.821v3.4c-1.24-0.2-3.001,0.301-3.001,2.281v4.521h-3v-10.002h3v1.78
			C357.279,348.461,358.619,347.821,359.88,347.821z"/>
		<path fill="#4E5051" d="M376.281,351.882v6.142h-3.001v-5.881c0-1.001-0.479-1.641-1.44-1.641c-1,0-1.56,0.7-1.56,1.88v5.642
			h-3.001v-5.881c0-1.001-0.48-1.641-1.44-1.641c-1,0-1.561,0.7-1.561,1.88v5.642h-3v-10.002h3v0.92c0.46-0.68,1.341-1.2,2.681-1.2
			c1.181,0,2.061,0.48,2.621,1.32c0.56-0.8,1.48-1.32,2.9-1.32C374.781,347.741,376.281,349.382,376.281,351.882z"/>
		<path fill="#4E5051" d="M388.601,348.021v10.002H385.6v-0.94c-0.66,0.761-1.64,1.221-2.98,1.221c-2.62,0-4.78-2.301-4.78-5.281
			s2.16-5.281,4.78-5.281c1.341,0,2.32,0.46,2.98,1.221v-0.94H388.601z M385.6,353.022c0-1.5-1-2.44-2.38-2.44
			c-1.381,0-2.381,0.94-2.381,2.44s1,2.44,2.381,2.44C384.6,355.463,385.6,354.522,385.6,353.022z"/>
		<path fill="#4E5051" d="M394.6,350.902v3.54c0,0.86,0.74,0.94,2.061,0.86v2.721c-3.921,0.4-5.062-0.78-5.062-3.581v-3.54h-1.601
			v-2.881h1.601v-1.9l3.001-0.9v2.801h2.061v2.881H394.6z"/>
		<path fill="#4E5051" d="M398.058,345.341c0-0.98,0.82-1.801,1.801-1.801s1.801,0.82,1.801,1.801s-0.82,1.8-1.801,1.8
			S398.058,346.321,398.058,345.341z M398.358,348.021h3v10.002h-3V348.021z"/>
		<path fill="#4E5051" d="M403.059,353.022c0-2.98,2.36-5.281,5.301-5.281s5.301,2.301,5.301,5.281s-2.36,5.281-5.301,5.281
			S403.059,356.003,403.059,353.022z M410.66,353.022c0-1.42-1.001-2.36-2.301-2.36c-1.301,0-2.301,0.94-2.301,2.36
			s1,2.36,2.301,2.36C409.659,355.383,410.66,354.442,410.66,353.022z"/>
		<path fill="#4E5051" d="M424.96,351.882v6.142h-3.001v-5.701c0-1.24-0.779-1.82-1.74-1.82c-1.1,0-1.86,0.64-1.86,2.061v5.461h-3
			v-10.002h3v0.94c0.54-0.74,1.541-1.221,2.861-1.221C423.239,347.741,424.96,349.182,424.96,351.882z"/>
		<path fill="#4E5051" d="M431.417,354.843l2.761-1.601c0.5,1.16,1.36,1.94,2.94,1.94c1.521,0,1.9-0.6,1.9-1.14
			c0-0.86-0.8-1.2-2.9-1.781c-2.08-0.58-4.121-1.58-4.121-4.261c0-2.7,2.28-4.261,4.701-4.261c2.301,0,4.101,1.101,5.121,3.161
			l-2.7,1.58c-0.48-1-1.141-1.62-2.421-1.62c-1,0-1.5,0.5-1.5,1.06c0,0.641,0.34,1.081,2.521,1.741
			c2.12,0.64,4.501,1.38,4.501,4.341c0,2.7-2.161,4.301-5.201,4.301C434.078,358.304,432.197,356.903,431.417,354.843z"/>
		<path fill="#4E5051" d="M452.82,348.021l-3.421,9.702c-1.12,3.181-2.9,4.44-5.701,4.301v-2.801c1.4,0,2.061-0.44,2.5-1.66
			l-3.98-9.542h3.301l2.221,6.121l1.88-6.121H452.82z"/>
		<path fill="#4E5051" d="M461.08,355.022c0,2.301-2.001,3.281-4.161,3.281c-2.001,0-3.521-0.761-4.301-2.381l2.601-1.48
			c0.26,0.761,0.82,1.181,1.7,1.181c0.72,0,1.08-0.22,1.08-0.62c0-1.101-4.921-0.521-4.921-3.981c0-2.18,1.84-3.28,3.921-3.28
			c1.62,0,3.061,0.72,3.9,2.141l-2.561,1.38c-0.28-0.52-0.68-0.88-1.34-0.88c-0.521,0-0.841,0.2-0.841,0.561
			C456.158,352.082,461.08,351.322,461.08,355.022z"/>
		<path fill="#4E5051" d="M466.079,350.902v3.54c0,0.86,0.74,0.94,2.061,0.86v2.721c-3.921,0.4-5.062-0.78-5.062-3.581v-3.54h-1.601
			v-2.881h1.601v-1.9l3.001-0.9v2.801h2.061v2.881H466.079z"/>
		<path fill="#4E5051" d="M474.719,355.623c0.82,0,1.52-0.32,1.92-0.761l2.4,1.381c-0.979,1.36-2.46,2.061-4.36,2.061
			c-3.421,0-5.541-2.301-5.541-5.281s2.16-5.281,5.32-5.281c2.921,0,5.081,2.261,5.081,5.281c0,0.42-0.04,0.82-0.119,1.2h-7.102
			C472.698,355.263,473.618,355.623,474.719,355.623z M476.559,351.982c-0.32-1.16-1.22-1.581-2.12-1.581
			c-1.141,0-1.9,0.561-2.181,1.581H476.559z"/>
		<path fill="#4E5051" d="M496.24,351.882v6.142h-3.001v-5.881c0-1.001-0.479-1.641-1.44-1.641c-1,0-1.56,0.7-1.56,1.88v5.642
			h-3.001v-5.881c0-1.001-0.48-1.641-1.44-1.641c-1,0-1.561,0.7-1.561,1.88v5.642h-3v-10.002h3v0.92c0.46-0.68,1.341-1.2,2.681-1.2
			c1.181,0,2.061,0.48,2.621,1.32c0.56-0.8,1.48-1.32,2.9-1.32C494.74,347.741,496.24,349.382,496.24,351.882z"/>
	</g>
</g>
</svg>
