<?xml version="1.0" encoding="utf-8"?>
<!-- Generator: Adobe Illustrator 16.0.0, SVG Export Plug-In . SVG Version: 6.00 Build 0)  -->
<!DOCTYPE svg PUBLIC "-//W3C//DTD SVG 1.1//EN" "http://www.w3.org/Graphics/SVG/1.1/DTD/svg11.dtd">
<svg version="1.1" id="Layer_1" xmlns="http://www.w3.org/2000/svg" xmlns:xlink="http://www.w3.org/1999/xlink" x="0px" y="0px"
	 width="504px" height="372px" viewBox="0 0 504 372" enable-background="new 0 0 504 372" xml:space="preserve">
<text transform="matrix(1 0 0 1 -1929.6074 -155.3872)" font-family="'Gilroy-ExtraBold'" font-size="41.3221">his-care</text>
<text transform="matrix(1 0 0 1 -1929.6074 -84.5898)" font-family="'Gilroy-ExtraBold'" font-size="41.3221">HISCare</text>
<text transform="matrix(1 0 0 1 -1929.6074 -222.6431)" font-family="'Gilroy-ExtraBold'" font-size="41.3221">HIScare</text>
<g>
	<path fill="#FE9D2A" d="M-684.678-788.339v115.445h-26.387v-45.848h-36.289v45.848h-26.387v-115.445h26.387v44.2h36.289v-44.2
		H-684.678z"/>
	<path fill="#FE9D2A" d="M-638.506-788.339v115.445h-26.387v-115.445H-638.506z"/>
	<path fill="#FE9D2A" d="M-626.127-699.117l22.754-13.193c4.125,9.565,11.219,16,24.244,16c12.535,0,15.67-4.95,15.67-9.401
		c0-7.094-6.596-9.896-23.918-14.679c-17.148-4.782-33.971-13.028-33.971-35.128c0-22.266,18.803-35.128,38.758-35.128
		c18.967,0,33.809,9.07,42.221,26.056l-22.264,13.03c-3.961-8.246-9.402-13.359-19.957-13.359c-8.248,0-12.371,4.124-12.371,8.741
		c0,5.277,2.807,8.906,20.783,14.349c17.477,5.278,37.105,11.379,37.105,35.787c0,22.264-17.813,35.458-42.883,35.458
		C-604.199-670.586-619.695-682.131-626.127-699.117z"/>
	<path fill="#FE9D2A" d="M-526.354-714.123c0-24.573,18.639-43.539,43.701-43.539c16.004,0,30.184,8.411,37.277,21.11
		l-21.609,12.533c-2.799-5.772-8.738-9.235-15.996-9.235c-10.719,0-18.639,7.752-18.639,19.132c0,11.377,7.92,19.13,18.639,19.13
		c7.258,0,13.361-3.461,15.996-9.234l21.609,12.368c-7.094,12.862-21.111,21.273-37.277,21.273
		C-507.715-670.586-526.354-689.552-526.354-714.123z"/>
	<path fill="#FE9D2A" d="M-352.525-755.353v82.459h-24.734v-7.752c-5.449,6.268-13.525,10.06-24.578,10.06
		c-21.602,0-39.414-18.966-39.414-43.537c0-24.573,17.813-43.539,39.414-43.539c11.053,0,19.129,3.792,24.578,10.06v-7.75H-352.525z
		 M-377.26-714.123c0-12.37-8.248-20.12-19.629-20.12s-19.629,7.75-19.629,20.12c0,12.367,8.248,20.12,19.629,20.12
		S-377.26-701.756-377.26-714.123z"/>
	<path fill="#FE9D2A" d="M-284.908-757.003v28.038c-10.219-1.651-24.734,2.473-24.734,18.798v37.273h-24.742v-82.459h24.742v14.677
		C-306.346-751.726-295.299-757.003-284.908-757.003z"/>
	<path fill="#FE9D2A" d="M-233.941-692.686c6.758,0,12.527-2.635,15.832-6.263l19.785,11.377
		c-8.076,11.214-20.283,16.986-35.953,16.986c-28.195,0-45.68-18.966-45.68-43.537c0-24.573,17.813-43.539,43.871-43.539
		c24.072,0,41.885,18.635,41.885,43.539c0,3.461-0.326,6.762-0.99,9.896h-58.543C-250.6-695.652-243.016-692.686-233.941-692.686z
		 M-218.771-722.7c-2.643-9.565-10.064-13.028-17.486-13.028c-9.4,0-15.66,4.617-17.975,13.028H-218.771z"/>
</g>
<g>
	<path fill="#FE9D2A" d="M-571.079-272.839v45.651h-22.308v-42.378c0-9.22-5.8-13.532-12.934-13.532
		c-8.181,0-13.832,4.759-13.832,15.315v40.595h-22.302v-104.09h22.302v36.73c4.014-5.502,11.449-9.071,21.269-9.071
		C-583.87-303.619-571.079-292.912-571.079-272.839z"/>
	<path fill="#FE9D2A" d="M-557.99-321.462c0-7.287,6.092-13.383,13.382-13.383c7.281,0,13.382,6.096,13.382,13.383
		c0,7.285-6.101,13.382-13.382,13.382C-551.898-308.081-557.99-314.178-557.99-321.462z M-555.764-301.537h22.302v74.348h-22.302
		V-301.537z"/>
	<path fill="#FE9D2A" d="M-460.146-249.494c0,17.101-14.872,24.386-30.932,24.386c-14.866,0-26.168-5.651-31.968-17.694
		l19.329-11.003c1.934,5.651,6.094,8.771,12.639,8.771c5.355,0,8.033-1.634,8.033-4.607c0-8.178-36.584-3.866-36.584-29.592
		c0-16.208,13.685-24.386,29.146-24.386c12.047,0,22.752,5.352,28.993,15.911l-19.034,10.261c-2.08-3.868-5.053-6.544-9.959-6.544
		c-3.865,0-6.248,1.488-6.248,4.164C-496.73-271.352-460.146-277.001-460.146-249.494z"/>
	<path fill="#FE9D2A" d="M-453.454-264.362c0-22.156,16.805-39.257,39.409-39.257c14.422,0,27.206,7.584,33.604,19.034
		l-19.484,11.299c-2.522-5.205-7.88-8.327-14.422-8.327c-9.665,0-16.799,6.99-16.799,17.25c0,10.258,7.134,17.248,16.799,17.248
		c6.542,0,12.047-3.121,14.422-8.326l19.484,11.151c-6.397,11.598-19.034,19.181-33.604,19.181
		C-436.649-225.108-453.454-242.208-453.454-264.362z"/>
	<path fill="#FE9D2A" d="M-296.725-301.537v74.348h-22.302v-6.99c-4.913,5.651-12.194,9.071-22.162,9.071
		c-19.476,0-35.536-17.101-35.536-39.254c0-22.156,16.061-39.257,35.536-39.257c9.968,0,17.249,3.419,22.162,9.071v-6.988H-296.725z
		 M-319.026-264.362c0-11.153-7.437-18.141-17.697-18.141c-10.263,0-17.699,6.988-17.699,18.141
		c0,11.151,7.437,18.141,17.699,18.141C-326.463-246.222-319.026-253.211-319.026-264.362z"/>
	<path fill="#FE9D2A" d="M-235.758-303.024v25.279c-9.216-1.488-22.303,2.23-22.303,16.95v33.607h-22.309v-74.348h22.309v13.233
		C-255.087-298.267-245.128-303.024-235.758-303.024z"/>
	<path fill="#FE9D2A" d="M-189.807-245.034c6.095,0,11.296-2.375,14.275-5.647l17.84,10.258
		c-7.283,10.111-18.289,15.315-32.418,15.315c-25.429,0-41.186-17.101-41.186-39.254c0-22.156,16.06-39.257,39.55-39.257
		c21.71,0,37.771,16.802,37.771,39.257c0,3.121-0.296,6.097-0.893,8.922h-52.784C-204.826-247.708-197.988-245.034-189.807-245.034z
		 M-176.129-272.096c-2.382-8.625-9.073-11.747-15.766-11.747c-8.475,0-14.127,4.163-16.207,11.747H-176.129z"/>
</g>
<g>
	<g>
		<g>
			<path fill="#4E5051" d="M79.135,283.797v45.65H56.827v-42.379c0-9.219-5.8-13.531-12.934-13.531
				c-8.181,0-13.832,4.758-13.832,15.314v40.596H7.76v-104.09h22.302v36.73c4.014-5.502,11.449-9.071,21.269-9.071
				C66.344,253.017,79.135,263.724,79.135,283.797z"/>
			<path fill="#4E5051" d="M92.224,235.174c0-7.287,6.092-13.383,13.382-13.383c7.281,0,13.382,6.096,13.382,13.383
				c0,7.284-6.101,13.381-13.382,13.381C98.315,248.555,92.224,242.458,92.224,235.174z M94.45,255.1h22.302v74.348H94.45V255.1z"/>
			<path fill="#4E5051" d="M190.067,307.142c0,17.101-14.872,24.386-30.932,24.386c-14.866,0-26.168-5.65-31.968-17.693
				l19.329-11.004c1.934,5.651,6.094,8.771,12.639,8.771c5.355,0,8.033-1.634,8.033-4.607c0-8.178-36.584-3.865-36.584-29.592
				c0-16.207,13.685-24.386,29.146-24.386c12.047,0,22.752,5.353,28.993,15.911l-19.034,10.26c-2.08-3.867-5.053-6.543-9.959-6.543
				c-3.865,0-6.248,1.488-6.248,4.164C153.483,285.283,190.067,279.635,190.067,307.142z"/>
			<path fill="#4E5051" d="M196.76,292.273c0-22.156,16.805-39.257,39.409-39.257c14.422,0,27.206,7.585,33.604,19.034
				l-19.484,11.299c-2.522-5.204-7.88-8.326-14.422-8.326c-9.665,0-16.799,6.99-16.799,17.25c0,10.258,7.134,17.248,16.799,17.248
				c6.542,0,12.047-3.121,14.422-8.326l19.484,11.151c-6.397,11.598-19.034,19.181-33.604,19.181
				C213.564,331.527,196.76,314.428,196.76,292.273z"/>
			<path fill="#4E5051" d="M353.489,255.1v74.348h-22.302v-6.99c-4.913,5.651-12.194,9.07-22.162,9.07
				c-19.476,0-35.536-17.1-35.536-39.254c0-22.156,16.061-39.257,35.536-39.257c9.968,0,17.249,3.419,22.162,9.071V255.1H353.489z
				 M331.188,292.273c0-11.152-7.437-18.141-17.697-18.141c-10.263,0-17.699,6.988-17.699,18.141
				c0,11.15,7.437,18.141,17.699,18.141C323.751,310.414,331.188,303.424,331.188,292.273z"/>
			<path fill="#4E5051" d="M414.456,253.611v25.279c-9.216-1.488-22.303,2.23-22.303,16.949v33.607h-22.309V255.1h22.309v13.232
				C395.127,258.369,405.086,253.611,414.456,253.611z"/>
			<path fill="#4E5051" d="M460.407,311.602c6.095,0,11.296-2.375,14.275-5.646l17.84,10.258
				c-7.283,10.11-18.289,15.314-32.418,15.314c-25.429,0-41.186-17.1-41.186-39.254c0-22.156,16.06-39.257,39.55-39.257
				c21.71,0,37.771,16.802,37.771,39.257c0,3.121-0.296,6.098-0.893,8.922h-52.784C445.388,308.928,452.226,311.602,460.407,311.602
				z M474.085,284.54c-2.382-8.624-9.073-11.747-15.766-11.747c-8.475,0-14.127,4.164-16.207,11.747H474.085z"/>
		</g>
		<g>
			<g>
				<path fill="#FE9D2A" d="M252,197.273c-52.345,0-94.931-42.585-94.931-94.93c0-52.346,42.586-94.932,94.931-94.932
					s94.931,42.586,94.931,94.932C346.931,154.688,304.345,197.273,252,197.273z M252,20.873c-44.923,0-81.471,36.547-81.471,81.471
					c0,44.923,36.548,81.47,81.471,81.47s81.471-36.547,81.471-81.47C333.471,57.42,296.923,20.873,252,20.873z"/>
			</g>
			<g>
				<g>
					<path fill-rule="evenodd" clip-rule="evenodd" fill="#FE9D2A" d="M260.437,68.83c5.953-9.836,23.265-11.527,34.586-4.793
						c15.141,9.007,20.76,28.604,13.103,46.536c-8.71,20.396-24.741,34.434-42.03,47.179c-14.211,10.476-14.395,10.324-28.674-0.396
						c-15.36-11.534-29.669-24.116-38.881-41.408c-6.498-12.195-8.586-24.793-2.256-37.765
						c5.906-12.104,15.859-18.174,29.179-18.266c13.583-0.095,23.622,6.364,30.429,17.97c0.418,0.714,0.207,1.797-1.031,3.68
						c-1.436-1.619-2.924-3.196-4.299-4.865c-10.469-12.718-26.689-16.702-39.054-9.568c-12.899,7.443-18.308,23.603-12.98,38.995
						c4.681,13.525,13.511,24.231,23.963,33.532c8.128,7.231,16.884,13.78,25.607,20.3c1.584,1.184,5.106,1.858,6.477,0.925
						c20.394-13.914,40.03-28.719,50.12-52.436c4.29-10.083,4.127-20.293-1.141-30.142c-6.986-13.061-22.812-18.099-37.383-11.938
						C264.257,67.181,262.348,68.01,260.437,68.83z"/>
				</g>
				<g>
					<path fill-rule="evenodd" clip-rule="evenodd" fill="#FE9D2A" d="M205.394,99.3c-3.357-17.101,8.199-30.085,21.85-26.442
						c-5.141,3.044-11.318,5.08-14.938,9.309C208.798,86.266,207.924,92.617,205.394,99.3z"/>
				</g>
			</g>
		</g>
	</g>
	<g>
		<path fill="#4E5051" d="M198.807,341.632v17.845h-4.079v-7.088h-5.608v7.088h-4.079v-17.845h4.079v6.832h5.608v-6.832H198.807z"/>
		<path fill="#4E5051" d="M208.21,356.417c1.046,0,1.937-0.408,2.446-0.969l3.06,1.76c-1.248,1.733-3.135,2.626-5.557,2.626
			c-4.359,0-7.062-2.933-7.062-6.73s2.753-6.73,6.78-6.73c3.722,0,6.476,2.881,6.476,6.73c0,0.535-0.052,1.045-0.153,1.529h-9.049
			C205.635,355.958,206.808,356.417,208.21,356.417z M210.555,351.778c-0.408-1.479-1.555-2.016-2.701-2.016
			c-1.454,0-2.422,0.715-2.779,2.016H210.555z"/>
		<path fill="#4E5051" d="M229.466,346.73v12.746h-3.824v-1.198c-0.841,0.969-2.089,1.556-3.798,1.556
			c-3.339,0-6.092-2.933-6.092-6.73s2.753-6.73,6.092-6.73c1.709,0,2.957,0.586,3.798,1.556v-1.198H229.466z M225.642,353.104
			c0-1.912-1.274-3.11-3.032-3.11c-1.76,0-3.034,1.198-3.034,3.11c0,1.911,1.274,3.11,3.034,3.11
			C224.367,356.214,225.642,355.015,225.642,353.104z"/>
		<path fill="#4E5051" d="M232.268,340.866h3.823v18.61h-3.823V340.866z"/>
		<path fill="#4E5051" d="M243.738,350.401v4.512c0,1.096,0.943,1.198,2.626,1.096v3.468c-4.997,0.51-6.45-0.994-6.45-4.563v-4.512
			h-2.04v-3.671h2.04v-2.422l3.824-1.147v3.569h2.626v3.671H243.738z"/>
		<path fill="#4E5051" d="M260.764,351.649v7.827h-3.824v-7.266c0-1.58-0.993-2.319-2.218-2.319c-1.401,0-2.37,0.814-2.37,2.626
			v6.959h-3.823v-17.845h3.823v6.297c0.688-0.943,1.963-1.556,3.646-1.556C258.571,346.373,260.764,348.209,260.764,351.649z"/>
		<path fill="#4E5051" d="M273.966,341.632v17.845h-4.079v-17.845H273.966z"/>
		<path fill="#4E5051" d="M289.131,351.649v7.827h-3.824v-7.266c0-1.58-0.993-2.319-2.218-2.319c-1.401,0-2.37,0.814-2.37,2.626
			v6.959h-3.823V346.73h3.823v1.198c0.688-0.943,1.963-1.556,3.646-1.556C286.938,346.373,289.131,348.209,289.131,351.649z"/>
		<path fill="#4E5051" d="M296.395,346.73h2.37v3.671h-2.37v9.075h-3.825v-9.075h-1.707v-3.671h1.707
			c0-3.569,1.963-5.711,6.195-5.456v3.671C297.337,344.817,296.395,345.252,296.395,346.73z"/>
		<path fill="#4E5051" d="M299.146,353.104c0-3.798,3.008-6.73,6.755-6.73s6.756,2.933,6.756,6.73s-3.009,6.73-6.756,6.73
			S299.146,356.901,299.146,353.104z M308.833,353.104c0-1.81-1.276-3.008-2.933-3.008c-1.657,0-2.932,1.198-2.932,3.008
			s1.274,3.008,2.932,3.008C307.557,356.111,308.833,354.913,308.833,353.104z"/>
		<path fill="#4E5051" d="M322.467,346.476v4.333c-1.58-0.255-3.824,0.383-3.824,2.907v5.761h-3.822V346.73h3.822v2.269
			C319.153,347.29,320.861,346.476,322.467,346.476z"/>
		<path fill="#4E5051" d="M343.369,351.649v7.827h-3.824v-7.494c0-1.276-0.611-2.091-1.836-2.091c-1.274,0-1.988,0.892-1.988,2.396
			v7.189h-3.824v-7.494c0-1.276-0.611-2.091-1.835-2.091c-1.274,0-1.989,0.892-1.989,2.396v7.189h-3.822V346.73h3.822v1.172
			c0.586-0.866,1.709-1.529,3.416-1.529c1.505,0,2.627,0.612,3.341,1.683c0.713-1.02,1.887-1.683,3.696-1.683
			C341.457,346.373,343.369,348.464,343.369,351.649z"/>
		<path fill="#4E5051" d="M359.068,346.73v12.746h-3.824v-1.198c-0.842,0.969-2.09,1.556-3.799,1.556
			c-3.339,0-6.092-2.933-6.092-6.73s2.753-6.73,6.092-6.73c1.709,0,2.957,0.586,3.799,1.556v-1.198H359.068z M355.244,353.104
			c0-1.912-1.275-3.11-3.033-3.11c-1.76,0-3.034,1.198-3.034,3.11c0,1.911,1.274,3.11,3.034,3.11
			C353.969,356.214,355.244,355.015,355.244,353.104z"/>
		<path fill="#4E5051" d="M366.713,350.401v4.512c0,1.096,0.943,1.198,2.626,1.096v3.468c-4.997,0.51-6.45-0.994-6.45-4.563v-4.512
			h-2.04v-3.671h2.04v-2.422l3.824-1.147v3.569h2.626v3.671H366.713z"/>
		<path fill="#4E5051" d="M371.12,343.314c0-1.25,1.045-2.295,2.294-2.295c1.25,0,2.295,1.045,2.295,2.295
			c0,1.249-1.045,2.293-2.295,2.293C372.165,345.607,371.12,344.563,371.12,343.314z M371.503,346.73h3.823v12.746h-3.823V346.73z"
			/>
		<path fill="#4E5051" d="M377.493,353.104c0-3.798,3.008-6.73,6.755-6.73s6.755,2.933,6.755,6.73s-3.008,6.73-6.755,6.73
			S377.493,356.901,377.493,353.104z M387.18,353.104c0-1.81-1.275-3.008-2.932-3.008c-1.658,0-2.932,1.198-2.932,3.008
			s1.273,3.008,2.932,3.008C385.904,356.111,387.18,354.913,387.18,353.104z"/>
		<path fill="#4E5051" d="M405.403,351.649v7.827h-3.824v-7.266c0-1.58-0.993-2.319-2.218-2.319c-1.401,0-2.371,0.814-2.371,2.626
			v6.959h-3.823V346.73h3.823v1.198c0.688-0.943,1.964-1.556,3.646-1.556C403.211,346.373,405.403,348.209,405.403,351.649z"/>
		<path fill="#4E5051" d="M413.632,355.423l3.519-2.039c0.637,1.479,1.733,2.473,3.747,2.473c1.938,0,2.421-0.765,2.421-1.452
			c0-1.097-1.019-1.53-3.695-2.271c-2.651-0.739-5.252-2.014-5.252-5.43c0-3.441,2.906-5.43,5.991-5.43
			c2.932,0,5.226,1.402,6.526,4.028l-3.441,2.014c-0.612-1.274-1.453-2.064-3.085-2.064c-1.274,0-1.912,0.637-1.912,1.351
			c0,0.816,0.434,1.377,3.212,2.219c2.702,0.814,5.736,1.758,5.736,5.531c0,3.441-2.754,5.481-6.628,5.481
			C417.023,359.834,414.626,358.049,413.632,355.423z"/>
		<path fill="#4E5051" d="M440.907,346.73l-4.359,12.364c-1.427,4.053-3.696,5.658-7.266,5.48v-3.569
			c1.785,0,2.626-0.562,3.187-2.115l-5.072-12.16h4.206l2.83,7.801l2.396-7.801H440.907z"/>
		<path fill="#4E5051" d="M451.434,355.652c0,2.932-2.551,4.182-5.303,4.182c-2.551,0-4.486-0.97-5.48-3.034l3.313-1.887
			c0.331,0.969,1.046,1.504,2.167,1.504c0.917,0,1.376-0.279,1.376-0.79c0-1.402-6.271-0.663-6.271-5.073
			c0-2.778,2.344-4.181,4.996-4.181c2.064,0,3.9,0.917,4.971,2.728l-3.263,1.759c-0.357-0.662-0.866-1.121-1.708-1.121
			c-0.663,0-1.071,0.255-1.071,0.714C445.161,351.905,451.434,350.937,451.434,355.652z"/>
		<path fill="#4E5051" d="M457.804,350.401v4.512c0,1.096,0.943,1.198,2.626,1.096v3.468c-4.996,0.51-6.45-0.994-6.45-4.563v-4.512
			h-2.04v-3.671h2.04v-2.422l3.824-1.147v3.569h2.626v3.671H457.804z"/>
		<path fill="#4E5051" d="M468.814,356.417c1.045,0,1.936-0.408,2.446-0.969l3.059,1.76c-1.248,1.733-3.135,2.626-5.557,2.626
			c-4.359,0-7.062-2.933-7.062-6.73s2.754-6.73,6.78-6.73c3.723,0,6.476,2.881,6.476,6.73c0,0.535-0.051,1.045-0.152,1.529h-9.05
			C466.239,355.958,467.411,356.417,468.814,356.417z M471.158,351.778c-0.408-1.479-1.554-2.016-2.701-2.016
			c-1.454,0-2.422,0.715-2.779,2.016H471.158z"/>
		<path fill="#4E5051" d="M496.24,351.649v7.827h-3.824v-7.494c0-1.276-0.611-2.091-1.836-2.091c-1.274,0-1.987,0.892-1.987,2.396
			v7.189h-3.824v-7.494c0-1.276-0.612-2.091-1.836-2.091c-1.274,0-1.988,0.892-1.988,2.396v7.189h-3.823V346.73h3.823v1.172
			c0.586-0.866,1.708-1.529,3.416-1.529c1.505,0,2.626,0.612,3.34,1.683c0.714-1.02,1.887-1.683,3.696-1.683
			C494.328,346.373,496.24,348.464,496.24,351.649z"/>
	</g>
</g>
</svg>
