<?xml version="1.0" encoding="utf-8"?>
<!-- Generator: Adobe Illustrator 16.0.0, SVG Export Plug-In . SVG Version: 6.00 Build 0)  -->
<!DOCTYPE svg PUBLIC "-//W3C//DTD SVG 1.1//EN" "http://www.w3.org/Graphics/SVG/1.1/DTD/svg11.dtd">
<svg version="1.1" id="Layer_1" xmlns="http://www.w3.org/2000/svg" xmlns:xlink="http://www.w3.org/1999/xlink" x="0px" y="0px"
	 width="607.47px" height="122.713px" viewBox="0 0 607.47 122.713" enable-background="new 0 0 607.47 122.713"
	 xml:space="preserve">
<text transform="matrix(1 0 0 1 -1227.6582 185.9458)" font-family="'Gilroy-ExtraBold'" font-size="41.3221">his-care</text>
<text transform="matrix(1 0 0 1 -1227.6582 256.7432)" font-family="'Gilroy-ExtraBold'" font-size="41.3221">HISCare</text>
<text transform="matrix(1 0 0 1 -1227.6582 118.6899)" font-family="'Gilroy-ExtraBold'" font-size="41.3221">HIScare</text>
<g>
	<path fill="#FE9D2A" d="M103.027,3.634v115.445H76.641V73.231H40.352v45.848H13.965V3.634h26.387v44.2h36.289v-44.2H103.027z"/>
	<path fill="#FE9D2A" d="M149.199,3.634v115.445h-26.387V3.634H149.199z"/>
	<path fill="#FE9D2A" d="M161.578,92.855l22.754-13.193c4.125,9.565,11.219,16,24.244,16c12.535,0,15.67-4.95,15.67-9.401
		c0-7.094-6.596-9.896-23.918-14.679c-17.148-4.782-33.971-13.028-33.971-35.128c0-22.266,18.803-35.128,38.758-35.128
		c18.967,0,33.809,9.07,42.221,26.056l-22.264,13.03c-3.961-8.246-9.402-13.359-19.957-13.359c-8.248,0-12.371,4.124-12.371,8.741
		c0,5.277,2.807,8.906,20.783,14.349c17.477,5.278,37.105,11.379,37.105,35.787c0,22.264-17.813,35.458-42.883,35.458
		C183.506,121.387,168.01,109.842,161.578,92.855z"/>
	<path fill="#FE9D2A" d="M261.352,77.85c0-24.573,18.639-43.539,43.701-43.539c16.004,0,30.184,8.411,37.277,21.11l-21.609,12.533
		c-2.799-5.772-8.738-9.235-15.996-9.235c-10.719,0-18.639,7.752-18.639,19.132c0,11.377,7.92,19.13,18.639,19.13
		c7.258,0,13.361-3.461,15.996-9.234l21.609,12.368c-7.094,12.862-21.111,21.273-37.277,21.273
		C279.99,121.387,261.352,102.42,261.352,77.85z"/>
	<path fill="#FE9D2A" d="M435.18,36.62v82.459h-24.734v-7.752c-5.449,6.268-13.525,10.06-24.578,10.06
		c-21.602,0-39.414-18.966-39.414-43.537c0-24.573,17.813-43.539,39.414-43.539c11.053,0,19.129,3.792,24.578,10.06v-7.75H435.18z
		 M410.445,77.85c0-12.37-8.248-20.12-19.629-20.12s-19.629,7.75-19.629,20.12c0,12.367,8.248,20.12,19.629,20.12
		S410.445,90.217,410.445,77.85z"/>
	<path fill="#FE9D2A" d="M502.797,34.969v28.038c-10.219-1.651-24.734,2.473-24.734,18.798v37.273H453.32V36.62h24.742v14.677
		C481.359,40.247,492.406,34.969,502.797,34.969z"/>
	<path fill="#FE9D2A" d="M553.764,99.287c6.758,0,12.527-2.635,15.832-6.263l19.785,11.377
		c-8.076,11.214-20.283,16.986-35.953,16.986c-28.195,0-45.68-18.966-45.68-43.537c0-24.573,17.813-43.539,43.871-43.539
		c24.072,0,41.885,18.635,41.885,43.539c0,3.461-0.326,6.762-0.99,9.896h-58.543C537.105,96.321,544.689,99.287,553.764,99.287z
		 M568.934,69.272c-2.643-9.565-10.064-13.028-17.486-13.028c-9.4,0-15.66,4.617-17.975,13.028H568.934z"/>
</g>
<text transform="matrix(1 0 0 1 -1227.6582 323.1143)" font-family="'Gilroy-ExtraBold'" font-size="41.3221">hiscare</text>
</svg>
