<?xml version="1.0" encoding="utf-8"?>
<!-- Generator: Adobe Illustrator 16.0.0, SVG Export Plug-In . SVG Version: 6.00 Build 0)  -->
<!DOCTYPE svg PUBLIC "-//W3C//DTD SVG 1.1//EN" "http://www.w3.org/Graphics/SVG/1.1/DTD/svg11.dtd">
<svg version="1.1" id="Layer_1" xmlns="http://www.w3.org/2000/svg" xmlns:xlink="http://www.w3.org/1999/xlink" x="0px" y="0px"
	 width="724.791px" height="115.646px" viewBox="1061.709 184.283 724.791 115.646"
	 enable-background="new 1061.709 184.283 724.791 115.646" xml:space="preserve">
<g>
	<g>
		<path fill="#FE9D2A" d="M1117.643,296.15c-30.842,0-55.934-25.091-55.934-55.934c0-30.842,25.092-55.934,55.934-55.934
			s55.934,25.092,55.934,55.934C1173.576,271.06,1148.484,296.15,1117.643,296.15z M1117.643,192.216
			c-26.468,0-48.002,21.533-48.002,48.002c0,26.468,21.534,48.001,48.002,48.001c26.469,0,48.002-21.533,48.002-48.001
			C1165.645,213.749,1144.111,192.216,1117.643,192.216z"/>
	</g>
	<g>
		<g>
			<path fill="#FE9D2A" d="M1122.614,220.473c3.507-5.796,13.708-6.792,20.378-2.825c8.92,5.307,12.231,16.854,7.72,27.419
				c-5.132,12.018-14.577,20.288-24.765,27.798c-8.372,6.172-8.48,6.084-16.894-0.233c-9.05-6.796-17.481-14.208-22.909-24.397
				c-3.829-7.186-5.059-14.608-1.329-22.251c3.479-7.133,9.345-10.709,17.192-10.763c8.002-0.056,13.918,3.75,17.929,10.589
				c0.245,0.419,0.122,1.058-0.608,2.167c-0.846-0.953-1.723-1.882-2.533-2.866c-6.168-7.494-15.725-9.841-23.01-5.638
				c-7.601,4.387-10.787,13.907-7.647,22.977c2.759,7.969,7.961,14.276,14.12,19.757c4.787,4.26,9.946,8.119,15.086,11.961
				c0.934,0.698,3.009,1.095,3.816,0.544c12.017-8.197,23.586-16.921,29.531-30.895c2.527-5.94,2.431-11.956-0.673-17.76
				c-4.116-7.695-13.44-10.663-22.025-7.033C1124.864,219.499,1123.74,219.988,1122.614,220.473z"/>
		</g>
		<g>
			<path fill="#FE9D2A" d="M1090.184,238.425c-1.979-10.075,4.829-17.727,12.873-15.58c-3.028,1.793-6.669,2.993-8.801,5.484
				C1092.188,230.744,1091.673,234.487,1090.184,238.425z"/>
		</g>
	</g>
</g>
<g>
	<g>
		<path fill="#4E5051" d="M1447.077,240.218c0-24.238,18.381-42.944,43.106-42.944c15.779,0,29.768,8.296,36.763,20.821
			l-21.309,12.362c-2.766-5.692-8.622-9.109-15.78-9.109c-10.572,0-18.381,7.646-18.381,18.87c0,11.224,7.809,18.87,18.381,18.87
			c7.158,0,13.178-3.417,15.78-9.111l21.309,12.2c-6.995,12.689-20.822,20.983-36.763,20.983
			C1465.458,283.16,1447.077,264.455,1447.077,240.218z"/>
		<path fill="#4E5051" d="M1618.523,199.55v81.335h-24.4v-7.646c-5.368,6.181-13.337,9.921-24.238,9.921
			c-21.309,0-38.875-18.705-38.875-42.942c0-24.238,17.566-42.944,38.875-42.944c10.901,0,18.87,3.741,24.238,9.923v-7.646H1618.523
			z M1594.123,240.218c0-12.2-8.135-19.846-19.356-19.846c-11.224,0-19.356,7.646-19.356,19.846s8.133,19.846,19.356,19.846
			C1585.988,260.063,1594.123,252.418,1594.123,240.218z"/>
		<path fill="#4E5051" d="M1685.211,197.924v27.653c-10.084-1.627-24.399,2.44-24.399,18.544v36.764h-24.4V199.55h24.4v14.478
			C1664.066,203.129,1674.963,197.924,1685.211,197.924z"/>
		<path fill="#4E5051" d="M1735.473,261.363c6.67,0,12.363-2.602,15.616-6.181l19.521,11.224
			c-7.971,11.06-20.007,16.754-35.463,16.754c-27.816,0-45.058-18.705-45.058-42.942c0-24.238,17.566-42.944,43.27-42.944
			c23.75,0,41.316,18.382,41.316,42.944c0,3.416-0.325,6.669-0.976,9.759h-57.747
			C1719.043,258.435,1726.525,261.363,1735.473,261.363z M1750.438,231.759c-2.603-9.436-9.923-12.852-17.243-12.852
			c-9.272,0-15.453,4.555-17.73,12.852H1750.438z"/>
	</g>
	<g>
		<path fill="#4E5051" stroke="#4E5051" stroke-width="3" stroke-miterlimit="10" d="M1278.458,199.141v82.372h-18.828v-32.712
			h-25.889v32.712h-18.827v-82.372h18.827v31.538h25.889v-31.538H1278.458z"/>
		<path fill="#4E5051" stroke="#4E5051" stroke-width="3" stroke-miterlimit="10" d="M1311.402,199.141v82.372h-18.828v-82.372
			H1311.402z"/>
		<path fill="#4E5051" stroke="#4E5051" stroke-width="3" stroke-miterlimit="10" d="M1320.229,262.803l16.238-9.413
			c2.941,6.825,8.002,11.414,17.299,11.414c8.942,0,11.179-3.53,11.179-6.706c0-5.062-4.708-7.061-17.063-10.474
			c-12.238-3.413-24.24-9.297-24.24-25.065c0-15.887,13.414-25.064,27.653-25.064c13.532,0,24.122,6.473,30.124,18.593
			l-15.885,9.296c-2.825-5.884-6.708-9.531-14.239-9.531c-5.884,0-8.825,2.941-8.825,6.237c0,3.764,2,6.354,14.826,10.237
			c12.474,3.765,26.478,8.118,26.478,25.535c0,15.886-12.71,25.299-30.595,25.299
			C1335.879,283.16,1324.816,274.923,1320.229,262.803z"/>
		<path fill="#4E5051" d="M1392.008,234.714h44.716v16.944h-44.716V234.714z"/>
	</g>
</g>
</svg>
