<?xml version="1.0" encoding="utf-8"?>
<!-- Generator: Adobe Illustrator 16.0.0, SVG Export Plug-In . SVG Version: 6.00 Build 0)  -->
<!DOCTYPE svg PUBLIC "-//W3C//DTD SVG 1.1//EN" "http://www.w3.org/Graphics/SVG/1.1/DTD/svg11.dtd">
<svg version="1.1" id="Layer_1" xmlns="http://www.w3.org/2000/svg" xmlns:xlink="http://www.w3.org/1999/xlink" x="0px" y="0px"
	 width="607.47px" height="122.713px" viewBox="0 0 607.47 122.713" enable-background="new 0 0 607.47 122.713"
	 xml:space="preserve">
<g>
	<path fill="#FE9D2A" d="M130.87,68.494v45.651h-22.308V71.766c0-9.22-5.8-13.532-12.934-13.532
		c-8.181,0-13.832,4.759-13.832,15.315v40.595H59.495V10.055h22.302v36.73c4.014-5.502,11.449-9.071,21.269-9.071
		C118.079,37.714,130.87,48.421,130.87,68.494z"/>
	<path fill="#FE9D2A" d="M143.959,19.871c0-7.287,6.092-13.383,13.382-13.383c7.281,0,13.382,6.096,13.382,13.383
		c0,7.285-6.101,13.382-13.382,13.382C150.051,33.252,143.959,27.155,143.959,19.871z M146.186,39.796h22.302v74.348h-22.302V39.796
		z"/>
	<path fill="#FE9D2A" d="M241.803,91.839c0,17.101-14.872,24.386-30.932,24.386c-14.866,0-26.168-5.651-31.968-17.694l19.329-11.003
		c1.934,5.651,6.094,8.771,12.639,8.771c5.355,0,8.033-1.634,8.033-4.607c0-8.178-36.584-3.866-36.584-29.592
		c0-16.208,13.685-24.386,29.146-24.386c12.047,0,22.752,5.352,28.993,15.911l-19.034,10.261c-2.08-3.868-5.053-6.544-9.959-6.544
		c-3.865,0-6.248,1.488-6.248,4.164C205.219,69.981,241.803,64.332,241.803,91.839z"/>
	<path fill="#FE9D2A" d="M248.495,76.971c0-22.156,16.805-39.257,39.409-39.257c14.422,0,27.206,7.584,33.604,19.034l-19.484,11.299
		c-2.522-5.205-7.88-8.327-14.422-8.327c-9.665,0-16.799,6.99-16.799,17.25c0,10.258,7.134,17.248,16.799,17.248
		c6.542,0,12.047-3.121,14.422-8.326l19.484,11.151c-6.397,11.598-19.034,19.181-33.604,19.181
		C265.3,116.225,248.495,99.125,248.495,76.971z"/>
	<path fill="#FE9D2A" d="M405.225,39.796v74.348h-22.302v-6.99c-4.913,5.651-12.194,9.071-22.162,9.071
		c-19.476,0-35.536-17.101-35.536-39.254c0-22.156,16.061-39.257,35.536-39.257c9.968,0,17.249,3.419,22.162,9.071v-6.988H405.225z
		 M382.923,76.971c0-11.153-7.437-18.141-17.697-18.141c-10.263,0-17.699,6.988-17.699,18.141c0,11.151,7.437,18.141,17.699,18.141
		C375.486,95.111,382.923,88.122,382.923,76.971z"/>
	<path fill="#FE9D2A" d="M466.191,38.309v25.279c-9.216-1.488-22.303,2.23-22.303,16.95v33.607H421.58V39.796h22.309v13.233
		C446.862,43.066,456.821,38.309,466.191,38.309z"/>
	<path fill="#FE9D2A" d="M512.143,96.299c6.095,0,11.296-2.375,14.275-5.647l17.84,10.258
		c-7.283,10.111-18.289,15.315-32.418,15.315c-25.429,0-41.186-17.101-41.186-39.254c0-22.156,16.06-39.257,39.55-39.257
		c21.71,0,37.771,16.802,37.771,39.257c0,3.121-0.296,6.097-0.893,8.922h-52.784C497.123,93.625,503.961,96.299,512.143,96.299z
		 M525.82,69.237c-2.382-8.625-9.073-11.747-15.766-11.747c-8.475,0-14.127,4.163-16.207,11.747H525.82z"/>
</g>
</svg>
