<?xml version="1.0" encoding="utf-8"?>
<!-- Generator: Adobe Illustrator 16.0.0, SVG Export Plug-In . SVG Version: 6.00 Build 0)  -->
<!DOCTYPE svg PUBLIC "-//W3C//DTD SVG 1.1//EN" "http://www.w3.org/Graphics/SVG/1.1/DTD/svg11.dtd">
<svg version="1.1" id="Layer_1" xmlns="http://www.w3.org/2000/svg" xmlns:xlink="http://www.w3.org/1999/xlink" x="0px" y="0px"
	 width="724.791px" height="115.646px" viewBox="1061.709 184.283 724.791 115.646"
	 enable-background="new 1061.709 184.283 724.791 115.646" xml:space="preserve">
<g>
	<g>
		<path fill="#FE9D2A" d="M290,197.273c-52.345,0-94.931-42.585-94.931-94.931c0-52.346,42.586-94.932,94.931-94.932
			c52.346,0,94.932,42.586,94.932,94.932C384.932,154.688,342.346,197.273,290,197.273z M290,20.873
			c-44.923,0-81.471,36.547-81.471,81.471c0,44.923,36.548,81.47,81.471,81.47s81.471-36.547,81.471-81.47
			C371.471,57.42,334.923,20.873,290,20.873z"/>
	</g>
	<g>
		<g>
			<path fill="#FE9D2A" d="M298.438,68.83c5.953-9.836,23.265-11.527,34.586-4.793c15.141,9.007,20.76,28.604,13.103,46.536
				c-8.71,20.396-24.741,34.434-42.03,47.179c-14.211,10.476-14.395,10.324-28.674-0.396c-15.36-11.534-29.669-24.116-38.881-41.408
				c-6.498-12.195-8.586-24.793-2.256-37.765c5.906-12.104,15.859-18.174,29.179-18.266c13.583-0.095,23.622,6.364,30.429,17.97
				c0.418,0.714,0.207,1.797-1.031,3.68c-1.436-1.619-2.923-3.196-4.298-4.865C278.094,63.984,261.874,60,249.509,67.134
				c-12.899,7.443-18.308,23.603-12.98,38.995c4.681,13.525,13.511,24.231,23.963,33.532c8.128,7.231,16.884,13.78,25.607,20.3
				c1.584,1.184,5.106,1.858,6.477,0.925c20.395-13.914,40.029-28.719,50.119-52.436c4.291-10.083,4.128-20.293-1.141-30.142
				c-6.986-13.061-22.812-18.099-37.383-11.938C302.257,67.181,300.348,68.01,298.438,68.83z"/>
		</g>
		<g>
			<path fill="#FE9D2A" d="M243.394,99.3c-3.357-17.101,8.199-30.085,21.85-26.442c-5.141,3.044-11.318,5.08-14.938,9.309
				C246.798,86.266,245.924,92.617,243.394,99.3z"/>
		</g>
	</g>
</g>
<g>
	<g>
		<path fill="#FE9D2A" d="M1117.643,296.15c-30.842,0-55.934-25.091-55.934-55.934c0-30.842,25.092-55.934,55.934-55.934
			s55.934,25.092,55.934,55.934C1173.576,271.06,1148.484,296.15,1117.643,296.15z M1117.643,192.216
			c-26.468,0-48.002,21.533-48.002,48.002c0,26.468,21.534,48.001,48.002,48.001c26.469,0,48.002-21.533,48.002-48.001
			C1165.645,213.749,1144.111,192.216,1117.643,192.216z"/>
	</g>
	<g>
		<g>
			<path fill="#FE9D2A" stroke="#FE9D2A" stroke-width="2" stroke-miterlimit="10" d="M1122.614,220.473
				c3.507-5.796,13.708-6.792,20.378-2.825c8.92,5.307,12.231,16.854,7.72,27.419c-5.132,12.018-14.577,20.288-24.765,27.798
				c-8.372,6.172-8.48,6.084-16.894-0.233c-9.05-6.796-17.481-14.208-22.909-24.397c-3.829-7.186-5.059-14.608-1.329-22.251
				c3.479-7.133,9.345-10.709,17.192-10.763c8.002-0.056,13.918,3.75,17.929,10.589c0.245,0.419,0.122,1.058-0.608,2.167
				c-0.846-0.953-1.723-1.882-2.533-2.866c-6.168-7.494-15.725-9.841-23.01-5.638c-7.601,4.387-10.787,13.907-7.647,22.977
				c2.759,7.969,7.961,14.276,14.12,19.757c4.787,4.26,9.946,8.119,15.086,11.961c0.934,0.698,3.009,1.095,3.816,0.544
				c12.017-8.197,23.586-16.921,29.531-30.895c2.527-5.94,2.431-11.956-0.673-17.76c-4.116-7.695-13.44-10.663-22.025-7.033
				C1124.864,219.499,1123.74,219.988,1122.614,220.473z"/>
		</g>
		<g>
			<path fill="#FE9D2A" stroke="#FE9D2A" stroke-width="2" stroke-miterlimit="10" d="M1090.184,238.425
				c-1.979-10.075,4.829-17.727,12.873-15.58c-3.028,1.793-6.669,2.993-8.801,5.484
				C1092.188,230.744,1091.673,234.487,1090.184,238.425z"/>
		</g>
	</g>
</g>
<g>
	<path fill="#4E5051" d="M272.464,341.632v17.845h-4.079v-7.088h-5.608v7.088h-4.079v-17.845h4.079v6.832h5.608v-6.832H272.464z"/>
	<path fill="#4E5051" d="M281.867,356.417c1.046,0,1.937-0.408,2.446-0.969l3.06,1.76c-1.248,1.733-3.135,2.626-5.557,2.626
		c-4.359,0-7.062-2.933-7.062-6.73c0-3.797,2.753-6.729,6.78-6.729c3.722,0,6.476,2.881,6.476,6.729
		c0,0.535-0.052,1.046-0.153,1.529h-9.049C279.292,355.958,280.465,356.417,281.867,356.417z M284.212,351.778
		c-0.408-1.479-1.555-2.017-2.701-2.017c-1.454,0-2.422,0.715-2.779,2.017H284.212z"/>
	<path fill="#4E5051" d="M303.123,346.73v12.745h-3.824v-1.197c-0.841,0.969-2.089,1.556-3.798,1.556
		c-3.339,0-6.092-2.933-6.092-6.73c0-3.797,2.753-6.729,6.092-6.729c1.709,0,2.957,0.586,3.798,1.556v-1.197h3.824V346.73z
		 M299.299,353.104c0-1.911-1.273-3.109-3.031-3.109c-1.761,0-3.035,1.198-3.035,3.109s1.274,3.11,3.035,3.11
		C298.023,356.214,299.299,355.015,299.299,353.104z"/>
	<path fill="#4E5051" d="M305.925,340.866h3.823v18.609h-3.823V340.866z"/>
	<path fill="#4E5051" d="M317.396,350.401v4.512c0,1.096,0.942,1.198,2.625,1.096v3.468c-4.996,0.511-6.449-0.993-6.449-4.563
		v-4.512h-2.04v-3.671h2.04v-2.423l3.824-1.146v3.569h2.625v3.671L317.396,350.401L317.396,350.401z"/>
	<path fill="#4E5051" d="M334.421,351.649v7.826h-3.823v-7.266c0-1.58-0.994-2.319-2.219-2.319c-1.4,0-2.37,0.814-2.37,2.626v6.959
		h-3.823v-17.845h3.823v6.297c0.688-0.942,1.964-1.556,3.646-1.556C332.229,346.373,334.421,348.209,334.421,351.649z"/>
	<path fill="#4E5051" d="M347.623,341.632v17.845h-4.079v-17.845H347.623z"/>
	<path fill="#4E5051" d="M362.788,351.649v7.826h-3.824v-7.266c0-1.58-0.993-2.319-2.218-2.319c-1.4,0-2.37,0.814-2.37,2.626v6.959
		h-3.823V346.73h3.823v1.197c0.688-0.942,1.963-1.556,3.646-1.556C360.596,346.373,362.788,348.209,362.788,351.649z"/>
	<path fill="#4E5051" d="M370.052,346.73h2.37v3.671h-2.37v9.074h-3.825v-9.074h-1.707v-3.671h1.707
		c0-3.569,1.963-5.712,6.195-5.456v3.671C370.994,344.817,370.052,345.252,370.052,346.73z"/>
	<path fill="#4E5051" d="M372.803,353.104c0-3.798,3.008-6.729,6.756-6.729c3.746,0,6.756,2.933,6.756,6.729
		c0,3.798-3.01,6.73-6.756,6.73C375.811,359.834,372.803,356.901,372.803,353.104z M382.49,353.104c0-1.81-1.276-3.008-2.934-3.008
		c-1.656,0-2.932,1.198-2.932,3.008c0,1.811,1.273,3.009,2.932,3.009C381.214,356.111,382.49,354.913,382.49,353.104z"/>
	<path fill="#4E5051" d="M396.124,346.476v4.333c-1.58-0.255-3.824,0.384-3.824,2.907v5.761h-3.821V346.73h3.821v2.269
		C392.811,347.29,394.52,346.476,396.124,346.476z"/>
	<path fill="#4E5051" d="M417.026,351.649v7.826h-3.824v-7.493c0-1.276-0.611-2.092-1.836-2.092c-1.274,0-1.988,0.893-1.988,2.396
		v7.188h-3.824v-7.493c0-1.276-0.61-2.092-1.835-2.092c-1.273,0-1.988,0.893-1.988,2.396v7.188h-3.822V346.73h3.822v1.172
		c0.586-0.866,1.709-1.529,3.415-1.529c1.506,0,2.628,0.612,3.342,1.683c0.713-1.02,1.887-1.683,3.695-1.683
		C415.114,346.373,417.026,348.464,417.026,351.649z"/>
	<path fill="#4E5051" d="M432.726,346.73v12.745h-3.823v-1.197c-0.843,0.969-2.09,1.556-3.8,1.556c-3.339,0-6.092-2.933-6.092-6.73
		c0-3.797,2.753-6.729,6.092-6.729c1.71,0,2.957,0.586,3.8,1.556v-1.197h3.823V346.73z M428.901,353.104
		c0-1.911-1.275-3.109-3.033-3.109c-1.76,0-3.034,1.198-3.034,3.109s1.274,3.11,3.034,3.11
		C427.626,356.214,428.901,355.015,428.901,353.104z"/>
	<path fill="#4E5051" d="M440.37,350.401v4.512c0,1.096,0.942,1.198,2.626,1.096v3.468c-4.997,0.511-6.45-0.993-6.45-4.563v-4.512
		h-2.04v-3.671h2.04v-2.423l3.824-1.146v3.569h2.626v3.671L440.37,350.401L440.37,350.401z"/>
	<path fill="#4E5051" d="M444.777,343.314c0-1.25,1.045-2.296,2.294-2.296c1.25,0,2.295,1.046,2.295,2.296
		c0,1.248-1.045,2.293-2.295,2.293C445.822,345.607,444.777,344.563,444.777,343.314z M445.16,346.73h3.823v12.745h-3.823V346.73z"
		/>
	<path fill="#4E5051" d="M451.15,353.104c0-3.798,3.008-6.729,6.755-6.729s6.755,2.933,6.755,6.729c0,3.798-3.008,6.73-6.755,6.73
		S451.15,356.901,451.15,353.104z M460.837,353.104c0-1.81-1.274-3.008-2.932-3.008c-1.658,0-2.933,1.198-2.933,3.008
		c0,1.811,1.273,3.009,2.933,3.009C459.563,356.111,460.837,354.913,460.837,353.104z"/>
	<path fill="#4E5051" d="M479.061,351.649v7.826h-3.823v-7.266c0-1.58-0.993-2.319-2.218-2.319c-1.401,0-2.371,0.814-2.371,2.626
		v6.959h-3.823V346.73h3.823v1.197c0.688-0.942,1.964-1.556,3.646-1.556C476.868,346.373,479.061,348.209,479.061,351.649z"/>
	<path fill="#4E5051" d="M487.289,355.423l3.519-2.039c0.638,1.479,1.733,2.474,3.747,2.474c1.938,0,2.421-0.766,2.421-1.452
		c0-1.098-1.019-1.53-3.694-2.271c-2.651-0.739-5.252-2.014-5.252-5.43c0-3.441,2.905-5.43,5.99-5.43
		c2.933,0,5.227,1.401,6.526,4.027l-3.44,2.015c-0.612-1.274-1.453-2.064-3.086-2.064c-1.273,0-1.911,0.637-1.911,1.352
		c0,0.815,0.434,1.377,3.212,2.219c2.701,0.813,5.735,1.758,5.735,5.531c0,3.44-2.754,5.48-6.628,5.48
		C490.681,359.834,488.283,358.049,487.289,355.423z"/>
	<path fill="#4E5051" d="M514.564,346.73l-4.359,12.363c-1.427,4.054-3.696,5.658-7.266,5.48v-3.569
		c1.784,0,2.626-0.562,3.187-2.115l-5.072-12.159h4.206l2.83,7.801l2.396-7.801H514.564L514.564,346.73z"/>
	<path fill="#4E5051" d="M525.091,355.652c0,2.932-2.551,4.182-5.303,4.182c-2.551,0-4.486-0.97-5.48-3.034l3.313-1.887
		c0.331,0.969,1.046,1.504,2.167,1.504c0.917,0,1.376-0.279,1.376-0.79c0-1.402-6.271-0.663-6.271-5.073
		c0-2.777,2.345-4.181,4.996-4.181c2.064,0,3.9,0.917,4.972,2.728l-3.264,1.76c-0.356-0.662-0.866-1.121-1.708-1.121
		c-0.663,0-1.07,0.255-1.07,0.714C518.818,351.905,525.091,350.938,525.091,355.652z"/>
	<path fill="#4E5051" d="M531.461,350.401v4.512c0,1.096,0.943,1.198,2.626,1.096v3.468c-4.996,0.511-6.45-0.993-6.45-4.563v-4.512
		h-2.04v-3.671h2.04v-2.423l3.824-1.146v3.569h2.626v3.671L531.461,350.401L531.461,350.401z"/>
	<path fill="#4E5051" d="M542.472,356.417c1.045,0,1.937-0.408,2.446-0.969l3.059,1.76c-1.248,1.733-3.135,2.626-5.557,2.626
		c-4.359,0-7.062-2.933-7.062-6.73c0-3.797,2.754-6.729,6.779-6.729c3.724,0,6.477,2.881,6.477,6.729
		c0,0.535-0.052,1.046-0.152,1.529h-9.05C539.896,355.958,541.068,356.417,542.472,356.417z M544.815,351.778
		c-0.408-1.479-1.555-2.017-2.701-2.017c-1.454,0-2.422,0.715-2.779,2.017H544.815z"/>
	<path fill="#4E5051" d="M569.896,351.649v7.826h-3.823v-7.493c0-1.276-0.611-2.092-1.836-2.092c-1.274,0-1.987,0.893-1.987,2.396
		v7.188h-3.824v-7.493c0-1.276-0.611-2.092-1.836-2.092c-1.273,0-1.988,0.893-1.988,2.396v7.188h-3.822V346.73h3.822v1.172
		c0.587-0.866,1.709-1.529,3.416-1.529c1.506,0,2.627,0.612,3.341,1.683c0.714-1.02,1.887-1.683,3.695-1.683
		C567.985,346.373,569.896,348.464,569.896,351.649z"/>
</g>
<g>
	<g>
		<path fill="#4E5051" d="M242.267,288.488c0-24.238,18.381-42.944,43.106-42.944c15.779,0,29.768,8.296,36.763,20.821
			l-21.309,12.362c-2.766-5.692-8.622-9.109-15.78-9.109c-10.573,0-18.381,7.646-18.381,18.87c0,11.224,7.808,18.87,18.381,18.87
			c7.158,0,13.177-3.417,15.78-9.111l21.309,12.2c-6.995,12.689-20.822,20.983-36.763,20.983
			C260.647,331.431,242.267,312.726,242.267,288.488z"/>
		<path fill="#4E5051" d="M413.713,247.82v81.335h-24.4v-7.646c-5.368,6.181-13.337,9.921-24.238,9.921
			c-21.309,0-38.875-18.705-38.875-42.942c0-24.238,17.566-42.944,38.875-42.944c10.901,0,18.87,3.741,24.238,9.923v-7.646H413.713z
			 M389.313,288.488c0-12.2-8.135-19.846-19.356-19.846c-11.224,0-19.356,7.646-19.356,19.846s8.133,19.846,19.356,19.846
			C381.178,308.334,389.313,300.688,389.313,288.488z"/>
		<path fill="#4E5051" d="M480.4,246.194v27.653c-10.084-1.627-24.399,2.44-24.399,18.544v36.764h-24.4V247.82h24.4v14.478
			C459.256,251.399,470.152,246.194,480.4,246.194z"/>
		<path fill="#4E5051" d="M530.662,309.634c6.67,0,12.363-2.602,15.616-6.181l19.521,11.224
			c-7.971,11.06-20.007,16.754-35.463,16.754c-27.816,0-45.058-18.705-45.058-42.942c0-24.238,17.566-42.944,43.27-42.944
			c23.75,0,41.316,18.382,41.316,42.944c0,3.416-0.325,6.669-0.976,9.759h-57.747C514.232,306.705,521.715,309.634,530.662,309.634z
			 M545.628,280.029c-2.603-9.436-9.923-12.852-17.243-12.852c-9.272,0-15.453,4.555-17.73,12.852H545.628z"/>
	</g>
	<g>
		<path fill="#4E5051" d="M73.647,247.411v82.372H54.819v-32.712H28.931v32.712H10.103v-82.372h18.828v31.538h25.889v-31.538H73.647
			z"/>
		<path fill="#4E5051" d="M106.592,247.411v82.372H87.764v-82.372H106.592z"/>
		<path fill="#4E5051" d="M115.417,311.073l16.239-9.413c2.942,6.825,8.001,11.414,17.298,11.414c8.943,0,11.179-3.53,11.179-6.706
			c0-5.062-4.708-7.061-17.063-10.474c-12.238-3.413-24.241-9.297-24.241-25.065c0-15.887,13.415-25.064,27.653-25.064
			c13.533,0,24.123,6.473,30.125,18.593l-15.886,9.296c-2.825-5.884-6.708-9.531-14.239-9.531c-5.884,0-8.825,2.941-8.825,6.237
			c0,3.764,2,6.354,14.827,10.237c12.473,3.765,26.477,8.118,26.477,25.535c0,15.886-12.709,25.299-30.595,25.299
			C131.068,331.431,120.006,323.193,115.417,311.073z"/>
		<path fill="#4E5051" d="M187.197,282.984h44.716v16.944h-44.716V282.984z"/>
	</g>
</g>
<g>
	<g>
		<path fill="#4E5051" d="M1447.077,240.218c0-24.238,18.381-42.944,43.106-42.944c15.779,0,29.768,8.296,36.763,20.821
			l-21.309,12.362c-2.766-5.692-8.622-9.109-15.78-9.109c-10.572,0-18.381,7.646-18.381,18.87c0,11.224,7.809,18.87,18.381,18.87
			c7.158,0,13.178-3.417,15.78-9.111l21.309,12.2c-6.995,12.689-20.822,20.983-36.763,20.983
			C1465.458,283.16,1447.077,264.455,1447.077,240.218z"/>
		<path fill="#4E5051" d="M1618.523,199.55v81.335h-24.4v-7.646c-5.368,6.181-13.337,9.921-24.238,9.921
			c-21.309,0-38.875-18.705-38.875-42.942c0-24.238,17.566-42.944,38.875-42.944c10.901,0,18.87,3.741,24.238,9.923v-7.646H1618.523
			z M1594.123,240.218c0-12.2-8.135-19.846-19.356-19.846c-11.224,0-19.356,7.646-19.356,19.846s8.133,19.846,19.356,19.846
			C1585.988,260.063,1594.123,252.418,1594.123,240.218z"/>
		<path fill="#4E5051" d="M1685.211,197.924v27.653c-10.084-1.627-24.399,2.44-24.399,18.544v36.764h-24.4V199.55h24.4v14.478
			C1664.066,203.129,1674.963,197.924,1685.211,197.924z"/>
		<path fill="#4E5051" d="M1735.473,261.363c6.67,0,12.363-2.602,15.616-6.181l19.521,11.224
			c-7.971,11.06-20.007,16.754-35.463,16.754c-27.816,0-45.058-18.705-45.058-42.942c0-24.238,17.566-42.944,43.27-42.944
			c23.75,0,41.316,18.382,41.316,42.944c0,3.416-0.325,6.669-0.976,9.759h-57.747
			C1719.043,258.435,1726.525,261.363,1735.473,261.363z M1750.438,231.759c-2.603-9.436-9.923-12.852-17.243-12.852
			c-9.272,0-15.453,4.555-17.73,12.852H1750.438z"/>
	</g>
	<g>
		<g>
			<polygon fill="#4E5051" points="1258.13,229.179 1235.241,229.179 1235.241,197.641 1213.414,197.641 1213.414,283.013 
				1235.241,283.013 1235.241,250.301 1258.13,250.301 1258.13,283.013 1279.958,283.013 1279.958,197.641 1258.13,197.641 			"/>
			<rect x="1291.074" y="197.641" fill="#4E5051" width="21.828" height="85.372"/>
			<path fill="#4E5051" d="M1357.729,230.891c-12.747-3.859-13.761-6.175-13.761-8.802c0-2.878,2.875-4.737,7.325-4.737
				c6.193,0,9.927,2.515,12.887,8.681l0.705,1.468l18.497-10.825l-0.621-1.254c-6.203-12.527-17.379-19.427-31.468-19.427
				c-14.487,0-29.153,9.125-29.153,26.564c0,17.234,13.541,23.221,25.341,26.512c12.83,3.544,15.963,5.315,15.963,9.027
				c0,4.303-5.264,5.206-9.679,5.206c-7.772,0-12.832-3.339-15.921-10.508l-0.669-1.551l-18.801,10.898l0.45,1.19
				c5.131,13.553,17.651,21.326,34.353,21.326c19.497,0,32.095-10.52,32.095-26.799C1385.272,239.203,1370,234.594,1357.729,230.891
				z"/>
		</g>
		<path fill="#4E5051" d="M1392.008,234.714h44.716v16.944h-44.716V234.714z"/>
	</g>
</g>
</svg>
