<svg xmlns="http://www.w3.org/2000/svg" viewBox="0 0 120.93 19.97"><defs><style>.cls-1{fill:#fbb03b;}.cls-2,.cls-3,.cls-4{fill:none;stroke:#000;stroke-linecap:round;stroke-miterlimit:10;stroke-width:0.65px;}.cls-3{stroke-dasharray:0 1.42 0 0 0 0;}.cls-4{stroke-dasharray:0 1.39 0 0 0 0;}</style></defs><title>Asset 1</title><g id="Layer_2" data-name="Layer 2"><g id="Layer_1-2" data-name="Layer 1"><path class="cls-1" d="M0,16.24l3.81-2.19a2.71,2.71,0,0,0,2.72,1.64c1.92,0,2.5-1.09,2.5-2.27V.38h4.39v13c0,4.22-3,6.55-6.92,6.55A6.79,6.79,0,0,1,0,16.24Z"/><path class="cls-1" d="M14.38,10a10,10,0,1,1,20,0,10,10,0,0,1-20,0ZM30,10a5.47,5.47,0,0,0-5.6-5.71A5.47,5.47,0,0,0,18.77,10a5.46,5.46,0,0,0,5.6,5.7A5.46,5.46,0,0,0,30,10Z"/><path class="cls-1" d="M54.67,19.59H50.28V8.42l-5,8.15h-.49l-5-8.15V19.59H35.46V.38h4.39l5.22,8.54L50.28.38h4.39Z"/><path class="cls-1" d="M67.85,15.36v4.23H56.6V.38H61v15Z"/><path class="cls-1" d="M66.48,10a10,10,0,1,1,20,0,10,10,0,0,1-20,0Zm15.58,0a5.6,5.6,0,1,0-11.19,0,5.6,5.6,0,1,0,11.19,0Z"/><path class="cls-1" d="M98.1,19.59,92,10.7v8.89H87.56V.38H92V8.73L97.82.38h5L96.34,9.74l6.75,9.85Z"/><path class="cls-1" d="M115.17,16.57H108l-1,3h-4.8L108.8.38h5.6l6.53,19.21h-4.8Zm-1.32-4.11-2.25-7-2.25,7.05Z"/><line class="cls-2" x1="17.93" y1="18.34" x2="17.93" y2="18.34"/><path class="cls-3" d="M16.59,17.88c-1.42-.73-3-2.51.34-6.54A28.19,28.19,0,0,1,24,5.28"/><line class="cls-2" x1="23.99" y1="5.28" x2="23.99" y2="5.28"/><line class="cls-2" x1="21.91" y1="19.53" x2="21.91" y2="19.53"/><path class="cls-4" d="M20.59,19.48c-1.22-.93-.43-5,4.2-9.13,2.77-2.47,9.79-5.53,9.64-2.51"/><line class="cls-2" x1="34.43" y1="7.84" x2="34.43" y2="7.84"/><path class="cls-1" d="M27.28,3,19.2,4.55l2.56,2,.82,3.16Z"/><path d="M27.54,2.83l0,0a0,0,0,0,1,0,0l0,0h0l-.05,0h-.17L19.15,4.26a.29.29,0,0,0-.23.22.28.28,0,0,0,.11.3l2.47,2,.8,3.07a.3.3,0,0,0,.23.22.33.33,0,0,0,.22,0,.3.3,0,0,0,.08-.08l4.71-6.76h0a.08.08,0,0,1,0,0h0a.06.06,0,0,0,0,0h0V3h0v0h0s0,0,0-.06ZM19.9,4.72l5.94-1.14L21.78,6.22Zm2.2,2,4.06-2.64-3.46,5Z"/></g></g></svg>